<?xml version="1.0" encoding="utf-8"?>
<!-- Generator: Adobe Illustrator 16.0.4, SVG Export Plug-In . SVG Version: 6.00 Build 0)  -->
<svg version="1.2" baseProfile="tiny" id="Layer_1" xmlns="http://www.w3.org/2000/svg" xmlns:xlink="http://www.w3.org/1999/xlink"
	 x="0px" y="0px" width="85px" height="50px" viewBox="-378.5 322.5 85 50" xml:space="preserve">
<g>
	<path fill="#BCDBEA" d="M-357.179,357.913c4.469-0.176,8.014-4.297,10.686-7.473c2.366-2.812,5.6-6.958,9.818-5.322
		c1.832,0.709,3.155,2.077,4.767,3.139c1.117,0.737,2.165,1.096,3.328,0.268c2.457-1.747,3.911-4.585,6.025-6.693
		c2.08-2.075,4.826-3.138,7.66-1.865c2.711,1.218,4.783,3.386,6.875,5.433c0.896,0.881,3.316,3.844,4.838,2.804
		c1.461-1.003,2.277-2.847,2.888-4.45c0.677-1.781,1.377-3.51,2.123-5.252c-6.259-8.229-20.841-14-37.828-14
		c-22.697,0-41.097,10.298-41.097,23c0,1.204,0.167,2.39,0.486,3.541c3.455,1.089,6.804,2.481,10.158,3.843
		C-363.631,356.024-360.318,358.036-357.179,357.913z"/>
	<path fill="#C3996B" d="M-335.999,370.499c22.694,0,41.095-10.299,41.095-23c0-1.66-0.316-3.278-0.912-4.837
		c-0.401,1.02-0.807,2.038-1.238,3.048c-0.691,1.614-1.445,3.21-2.69,4.473c-1.921,1.946-4.519,1.817-6.748,0.465
		c-2.418-1.467-4.251-3.733-6.325-5.616c-1.836-1.662-3.924-3.254-6.185-1.383c-4.313,3.568-7.42,11.89-14.272,7.368
		c-1.301-0.854-2.937-2.849-4.562-2.947c-1.909-0.115-3.719,2.365-4.782,3.623c-2.804,3.315-6.05,7.371-10.285,8.875
		c-3.824,1.359-7.648,0.203-11.213-1.391c-3.514-1.572-7.15-3.07-10.829-4.328C-369.473,363.946-354.104,370.499-335.999,370.499z"
		/>
	<path fill="#FFFFFF" d="M-296.943,340.329c-0.363-0.622-0.771-1.231-1.228-1.83c-0.746,1.743-1.446,3.472-2.123,5.252
		c-0.608,1.604-1.427,3.446-2.888,4.45c-1.521,1.04-3.939-1.924-4.838-2.803c-2.092-2.049-4.164-4.217-6.875-5.434
		c-2.834-1.271-5.58-0.209-7.66,1.865c-2.114,2.109-3.568,4.947-6.025,6.694c-1.163,0.828-2.211,0.47-3.328-0.269
		c-1.609-1.062-2.935-2.429-4.767-3.139c-4.219-1.635-7.452,2.509-9.818,5.321c-2.672,3.177-6.217,7.297-10.686,7.474
		c-3.14,0.123-6.452-1.89-9.272-3.028c-3.354-1.359-6.703-2.756-10.158-3.845c0.172,0.624,0.39,1.235,0.649,1.845
		c0.286,0.668,0.621,1.32,1.009,1.965c3.679,1.258,7.315,2.756,10.829,4.328c3.564,1.594,7.389,2.75,11.213,1.391
		c4.235-1.504,7.481-5.559,10.285-8.875c1.063-1.258,2.873-3.739,4.782-3.623c1.628,0.1,3.264,2.093,4.562,2.947
		c6.854,4.521,9.959-3.798,14.272-7.37c2.261-1.869,4.349-0.278,6.185,1.383c2.074,1.882,3.907,4.151,6.325,5.618
		c2.229,1.354,4.827,1.48,6.748-0.465c1.245-1.264,1.999-2.858,2.69-4.474c0.434-1.01,0.836-2.027,1.238-3.048
		C-296.121,341.868-296.498,341.09-296.943,340.329z"/>
</g>
</svg>
