<?xml version="1.0" encoding="utf-8"?>
<!-- Generator: Adobe Illustrator 16.0.4, SVG Export Plug-In . SVG Version: 6.00 Build 0)  -->
<!DOCTYPE svg PUBLIC "-//W3C//DTD SVG 1.1//EN" "http://www.w3.org/Graphics/SVG/1.1/DTD/svg11.dtd">
<svg version="1.1" id="Layer_1" xmlns="http://www.w3.org/2000/svg" xmlns:xlink="http://www.w3.org/1999/xlink" x="0px" y="0px"
	 width="85px" height="50px" viewBox="-378.5 322.5 85 50" enable-background="new -378.5 322.5 85 50" xml:space="preserve">
<g>
	<path fill="#BCDBEA" d="M-357.179,357.912c4.469-0.176,8.014-4.297,10.686-7.473c2.366-2.811,5.6-6.957,9.818-5.322
		c1.832,0.709,3.155,2.078,4.767,3.141c1.117,0.736,2.165,1.096,3.328,0.268c2.457-1.748,3.911-4.586,6.025-6.693
		c2.08-2.074,4.826-3.139,7.66-1.865c2.711,1.219,4.783,3.387,6.875,5.434c0.896,0.881,3.315,3.844,4.838,2.803
		c1.461-1.002,2.277-2.846,2.888-4.449c0.677-1.781,1.377-3.51,2.123-5.252c-6.259-8.229-20.841-14-37.828-14
		c-22.697,0-41.097,10.299-41.097,23c0,1.203,0.167,2.391,0.486,3.541c3.455,1.09,6.804,2.48,10.158,3.844
		C-363.631,356.023-360.318,358.035-357.179,357.912z"/>
	<path fill="#C3996B" d="M-335.999,370.498c22.694,0,41.095-10.299,41.095-23c0-1.658-0.316-3.277-0.912-4.836
		c-0.4,1.02-0.807,2.037-1.238,3.049c-0.69,1.613-1.444,3.209-2.689,4.473c-1.921,1.945-4.52,1.816-6.748,0.465
		c-2.418-1.467-4.251-3.734-6.324-5.617c-1.836-1.662-3.925-3.254-6.186-1.383c-4.312,3.568-7.42,11.891-14.271,7.369
		c-1.302-0.855-2.938-2.85-4.562-2.947c-1.909-0.115-3.719,2.365-4.782,3.623c-2.804,3.314-6.05,7.371-10.285,8.875
		c-3.824,1.359-7.648,0.203-11.213-1.391c-3.514-1.572-7.15-3.07-10.829-4.328C-369.473,363.945-354.104,370.498-335.999,370.498z"
		/>
</g>
</svg>
