<?xml version="1.0" encoding="utf-8"?>
<!-- Generator: Adobe Illustrator 16.0.4, SVG Export Plug-In . SVG Version: 6.00 Build 0)  -->
<svg version="1.2" baseProfile="tiny" id="larger" xmlns="http://www.w3.org/2000/svg" xmlns:xlink="http://www.w3.org/1999/xlink"
	 x="0px" y="0px" width="50px" height="50px" viewBox="-157.5 131.5 50 50" xml:space="preserve">
<g>
	<path fill="#E7805D" d="M-110.07,151.43c0.35,1.67,0.57,3.36,0.57,5.06v0.25c-0.04,4.07-1.17,8.06-3.25,11.54
		c-0.83,1.39-1.84,2.65-2.89,3.85c-0.89,1.02-0.84-0.3-0.84-0.3c0.04-0.59,0.02-1.2-0.04-1.83c-0.22-2.25-1.02-4.33-1.77-6.08
		c-0.8-1.83-1.23-3.46-1.31-4.94c-0.07-1.24,0.12-2.36,0.56-3.33c0.38-0.84,0.96-1.6,1.74-2.25c1.25-1.06,2.95-1.86,5.05-2.36
		c0.4-0.09,0.81-0.18,1.22-0.25C-111.04,150.8-110.25,150.59-110.07,151.43z"/>
	<path fill="#CBA275" d="M-139.41,178.4c2.27,0.66,4.51,1.08,6.71,1.09h0.19c1.21,0,2.44-0.09,3.64-0.3
		c0.11-0.06,0.23-0.09,0.36-0.1c0.15-0.01,0.3-0.03,0.45-0.04c1.94-0.38,3.83-1.01,5.59-1.87c0.5-0.32,0.93-0.63,1.3-0.98
		c0.73-0.68,1.3-1.5,1.65-2.38c0.41-1.04,0.55-2.24,0.42-3.56c-0.18-1.89-0.9-3.74-1.57-5.3c-0.92-2.12-1.42-4.03-1.52-5.83
		c-0.09-1.66,0.18-3.18,0.79-4.53c0.54-1.19,1.35-2.25,2.41-3.15c1.56-1.32,3.61-2.3,6.11-2.91c0.33-0.08,0.68-0.14,1.01-0.22
		c0.81-0.17,0.41-1.06,0.41-1.06c-0.36-0.81-0.76-1.61-1.2-2.36c-1.71-2.91-4.08-5.46-6.88-7.39l-0.08-0.06
		c-0.14-0.1-0.22-0.16-0.4-0.16c-0.06,0-0.13,0.01-0.19,0.02c-0.04,0.01-0.09,0.01-0.14,0.02c-0.58,0.07-1.15,0.16-1.68,0.26
		c-1.92,0.35-3.64,0.87-5.15,1.55c-2.05,0.94-3.62,2.15-4.67,3.62c-1.6,2.25-1.71,4.86-1.52,6.65c0.17,1.58,0.6,3.24,1.31,5.09
		c0.19,0.49,0.4,0.99,0.62,1.48c0.23,0.53,0.47,1.09,0.69,1.66c0.4,1.05,0.74,2.08,0.98,3.07l0.03,0.12c0.88,3.6,0.7,6.78-0.52,9.46
		c-0.99,2.17-2.75,4.07-5.08,5.48c-1.21,0.73-2.58,1.34-4.08,1.83C-139.39,177.6-140.42,178.1-139.41,178.4z"/>
	<path fill="#AFBFDA" d="M-131.91,162.97c0.32,2.4,0.14,4.49-0.66,6.27c-0.78,1.71-2.19,3.21-4.07,4.34
		c-1.45,0.87-3.18,1.55-5.12,2.02c-0.96,0.23-1.69,0.48-2.36,0.44c-0.63-0.03-0.99-0.32-0.99-0.32c-3.02-2.02-5.55-4.69-7.32-7.75
		c-2.03-3.51-3.09-7.53-3.07-11.61c0.01-1.83,0.24-3.66,0.68-5.44c0,0,0.35-0.86,0.75-0.09c0.02,0.09,0.04,0.17,0.07,0.24
		c0.01,0.05,0.04,0.11,0.05,0.17c0.04,0.11,0.06,0.19,0.09,0.28c0.02,0.07,0.04,0.14,0.07,0.19c0.03,0.09,0.06,0.17,0.09,0.25
		c0.03,0.06,0.05,0.13,0.08,0.2c0.04,0.09,0.07,0.17,0.11,0.26c0.03,0.06,0.06,0.13,0.09,0.2c0.04,0.09,0.08,0.17,0.12,0.25
		l0.1,0.19c0.04,0.09,0.09,0.17,0.14,0.26c0.04,0.09,0.08,0.14,0.11,0.19c0.04,0.08,0.09,0.16,0.14,0.25c0,0,0.09,0.15,0.12,0.2
		c0.05,0.08,0.11,0.17,0.17,0.25c0,0,0.1,0.15,0.14,0.19c0.07,0.1,0.14,0.2,0.22,0.3c0,0,0.08,0.11,0.1,0.14
		c0.11,0.15,0.23,0.29,0.35,0.43c0,0,0.02,0.03,0.03,0.03c0.11,0.12,0.23,0.27,0.35,0.4c0.03,0.03,0.14,0.14,0.14,0.14
		c0.09,0.09,0.17,0.18,0.27,0.27c0.04,0.04,0.19,0.18,0.19,0.18c0.08,0.08,0.17,0.15,0.24,0.23c0.05,0.04,0.19,0.17,0.19,0.17
		c0.09,0.07,0.17,0.15,0.27,0.23c0.07,0.06,0.13,0.1,0.19,0.16c0.12,0.09,0.21,0.17,0.31,0.24c0.07,0.06,0.15,0.12,0.23,0.17
		c0.1,0.07,0.2,0.14,0.3,0.22c0.08,0.05,0.16,0.11,0.24,0.17c0.1,0.07,0.21,0.14,0.32,0.21c0.08,0.06,0.17,0.11,0.25,0.16
		c0.11,0.06,0.22,0.14,0.34,0.2c0,0,0.19,0.12,0.27,0.16c0.11,0.06,0.23,0.13,0.35,0.19c0,0,0.24,0.13,0.3,0.16
		c0.12,0.06,0.24,0.12,0.37,0.19l0.3,0.14c0.14,0.07,0.3,0.14,0.45,0.2l0.26,0.11c0.19,0.08,0.37,0.16,0.57,0.24l0.16,0.07
		c0.27,0.1,0.53,0.2,0.79,0.29l0.21,0.07c0.19,0.06,0.4,0.14,0.6,0.2l0.35,0.11c0.17,0.05,0.33,0.1,0.5,0.15
		c0.09,0.03,0.36,0.1,0.36,0.1c0.17,0.04,0.35,0.09,0.53,0.14c0.1,0.03,0.42,0.11,0.42,0.11c0.17,0.04,0.33,0.08,0.5,0.12
		c0.12,0.03,0.42,0.09,0.42,0.09c0.18,0.04,0.37,0.08,0.55,0.12c0.14,0.03,0.29,0.06,0.44,0.09c0.19,0.04,0.37,0.07,0.57,0.1
		c0.15,0.03,0.3,0.05,0.46,0.08c0.19,0.04,0.4,0.06,0.6,0.09c0.16,0.02,0.32,0.04,0.48,0.07c0.21,0.03,0.42,0.06,0.63,0.09
		c0,0,0.33,0.04,0.49,0.06c0.19,0.02,0.4,0.04,0.6,0.06c0,0,0.44,0.04,0.55,0.06c0.21,0.02,0.42,0.04,0.65,0.06
		c0,0,0.45,0.04,0.55,0.05c0.26,0.02,0.52,0.04,0.78,0.05l0.46,0.03C-132.31,162.37-131.98,162.42-131.91,162.97z"/>
	<path fill="#B2D8B4" stroke="#B2D8B4" stroke-miterlimit="10" d="M-151.11,142.98c0.09-0.12,0.18-0.24,0.27-0.36
		c1.84-2.43,4.18-4.5,6.8-6.02c3.49-2.03,7.47-3.1,11.54-3.1h0.06c2.42,0.01,4.85,0.4,7.14,1.15c0.07,0.02,0.13,0.04,0.19,0.06
		c0,0,0.99,0.44,0.04,0.97c-0.07,0.04-0.15,0.04-0.23,0.07c-1.04,0.3-2.02,0.66-2.92,1.08c-2.47,1.12-4.38,2.63-5.69,4.46
		c-1.63,2.3-2.32,5.2-1.99,8.41c0.19,1.81,0.67,3.69,1.48,5.75c0.21,0.54,0.44,1.07,0.65,1.58c0.22,0.51,0.45,1.04,0.65,1.56
		c0,0,0.65,1.22-0.23,1.15c-0.09-0.01-0.45-0.04-0.45-0.04c-0.25-0.02-0.48-0.04-0.69-0.06c-0.11-0.01-0.47-0.05-0.47-0.05
		c-0.22-0.02-0.43-0.05-0.63-0.07c-0.14-0.01-0.47-0.06-0.47-0.06c-0.19-0.02-0.39-0.05-0.58-0.08l-0.45-0.07
		c-0.19-0.03-0.37-0.06-0.55-0.09c-0.14-0.02-0.29-0.05-0.43-0.07c-0.18-0.04-0.36-0.06-0.54-0.1c-0.14-0.03-0.27-0.05-0.41-0.08
		c-0.17-0.04-0.35-0.07-0.51-0.11c0,0-0.28-0.06-0.39-0.09c-0.17-0.04-0.33-0.08-0.5-0.12c0,0-0.28-0.07-0.36-0.09
		c-0.17-0.04-0.32-0.09-0.49-0.14c0,0-0.26-0.07-0.33-0.09c-0.14-0.04-0.28-0.09-0.42-0.13c0,0-0.3-0.09-0.36-0.11
		c-0.19-0.06-0.37-0.12-0.55-0.19l-0.19-0.06c-0.23-0.08-0.46-0.17-0.69-0.26l-0.14-0.06c-0.18-0.07-0.35-0.14-0.51-0.21l-0.23-0.1
		c-0.14-0.06-0.27-0.12-0.4-0.18l-0.27-0.13c-0.11-0.05-0.22-0.11-0.32-0.16c-0.06-0.03-0.24-0.13-0.24-0.13
		c-0.1-0.06-0.21-0.12-0.32-0.17l-0.23-0.14c-0.09-0.06-0.19-0.12-0.29-0.17c-0.07-0.04-0.14-0.09-0.22-0.14
		c-0.09-0.06-0.18-0.11-0.27-0.18c-0.07-0.04-0.14-0.09-0.2-0.14c-0.09-0.06-0.17-0.12-0.26-0.18c-0.06-0.05-0.13-0.09-0.19-0.14
		c-0.08-0.06-0.16-0.12-0.24-0.19c-0.06-0.06-0.12-0.09-0.17-0.14c-0.08-0.07-0.15-0.13-0.23-0.2c0,0-0.12-0.1-0.16-0.14
		c-0.06-0.05-0.12-0.11-0.17-0.17c0,0-0.14-0.14-0.18-0.17c-0.08-0.08-0.15-0.16-0.23-0.23l-0.11-0.12
		c-0.09-0.1-0.19-0.21-0.29-0.32c-0.01-0.01-0.03-0.03-0.04-0.04c-0.08-0.09-0.17-0.22-0.27-0.33l-0.08-0.1
		c-0.06-0.09-0.13-0.17-0.18-0.25c-0.02-0.04-0.09-0.13-0.09-0.13c-0.06-0.09-0.11-0.16-0.14-0.22l-0.09-0.14
		c-0.05-0.08-0.09-0.14-0.12-0.2l-0.07-0.12c-0.05-0.09-0.09-0.17-0.13-0.23l-0.09-0.16c-0.03-0.06-0.06-0.13-0.09-0.19
		c-0.03-0.06-0.05-0.11-0.07-0.16c-0.03-0.06-0.06-0.13-0.09-0.19c-0.02-0.05-0.04-0.1-0.06-0.15c-0.03-0.07-0.05-0.13-0.08-0.2
		l-0.06-0.16c-0.02-0.07-0.08-0.23-0.08-0.23l-0.04-0.12c-0.02-0.06-0.04-0.13-0.05-0.19l-0.05-0.18c-0.01-0.06-0.04-0.14-0.05-0.21
		l-0.04-0.14c-0.01-0.07-0.04-0.16-0.05-0.24l-0.02-0.1c-0.02-0.1-0.04-0.22-0.06-0.33l-0.01-0.06c-0.01-0.1-0.03-0.19-0.04-0.28
		c0,0-0.03-0.28-0.04-0.35c0,0-0.02-0.27-0.02-0.33c0,0-0.01-0.27-0.01-0.33v-0.32l0.01-0.31v-0.14c0-0.06,0.01-0.31,0.01-0.31
		l0.02-0.3c0-0.05,0.03-0.28,0.03-0.28l0.04-0.27c0.01-0.06,0.04-0.27,0.04-0.27c0.03-0.17,0.06-0.33,0.09-0.5l0.06-0.31l0.05-0.22
		l0.05-0.2l0.05-0.19C-151.53,143.98-151.28,143.21-151.11,142.98z"/>
</g>
</svg>
