<?xml version="1.0" encoding="utf-8"?>
<!-- Generator: Adobe Illustrator 16.0.4, SVG Export Plug-In . SVG Version: 6.00 Build 0)  -->
<svg version="1.2" baseProfile="tiny" id="larger" xmlns="http://www.w3.org/2000/svg" xmlns:xlink="http://www.w3.org/1999/xlink"
	 x="0px" y="0px" width="70px" height="70px" viewBox="-121.13 168.29 70 70" xml:space="preserve">
<path fill="#E7805D" d="M-54.98,196.25c0.48,2.32,0.79,4.67,0.79,7.03v0.35c-0.06,5.65-1.62,11.19-4.51,16.02
	c-1.16,1.93-2.55,3.68-4.02,5.35c-1.24,1.42-1.16-0.41-1.16-0.41c0.05-0.82,0.03-1.67-0.05-2.54c-0.3-3.13-1.41-6.02-2.46-8.44
	c-1.11-2.55-1.71-4.8-1.82-6.86c-0.09-1.72,0.17-3.28,0.78-4.62c0.53-1.17,1.34-2.22,2.42-3.13c1.73-1.47,4.09-2.58,7.02-3.28
	c0.56-0.13,1.13-0.25,1.69-0.35C-56.32,195.38-55.22,195.08-54.98,196.25z"/>
<path fill="#CBA275" d="M-95.72,233.7c3.15,0.92,6.26,1.5,9.32,1.52h0.26c1.68,0,3.39-0.13,5.06-0.41c0.15-0.08,0.32-0.12,0.5-0.14
	c0.21-0.01,0.42-0.04,0.62-0.06c2.7-0.53,5.32-1.41,7.77-2.6c0.7-0.44,1.29-0.88,1.81-1.36c1.02-0.95,1.81-2.09,2.29-3.3
	c0.57-1.44,0.76-3.11,0.58-4.95c-0.25-2.63-1.25-5.19-2.18-7.36c-1.28-2.95-1.97-5.6-2.11-8.09c-0.12-2.3,0.25-4.42,1.1-6.29
	c0.75-1.65,1.88-3.12,3.35-4.37c2.16-1.84,5.01-3.19,8.49-4.04c0.46-0.11,0.94-0.2,1.4-0.3c1.13-0.24,0.57-1.48,0.57-1.48
	c-0.5-1.13-1.05-2.23-1.67-3.28c-2.37-4.04-5.67-7.59-9.55-10.26l-0.11-0.08c-0.19-0.14-0.3-0.22-0.55-0.22
	c-0.08,0-0.18,0.01-0.27,0.03c-0.06,0.01-0.12,0.02-0.19,0.03c-0.81,0.1-1.6,0.22-2.34,0.36c-2.66,0.49-5.06,1.21-7.15,2.16
	c-2.85,1.3-5.03,2.99-6.48,5.02c-2.22,3.12-2.38,6.75-2.11,9.24c0.23,2.19,0.83,4.5,1.82,7.07c0.26,0.68,0.56,1.37,0.86,2.05
	c0.32,0.74,0.65,1.51,0.96,2.3c0.56,1.46,1.02,2.89,1.36,4.27l0.04,0.16c1.22,5,0.97,9.42-0.72,13.14
	c-1.38,3.02-3.82,5.65-7.05,7.61c-1.68,1.02-3.58,1.86-5.66,2.54C-95.7,232.6-97.13,233.29-95.72,233.7z"/>
<path fill="#AFBFDA" d="M-85.3,212.28c0.45,3.33,0.2,6.24-0.92,8.7c-1.08,2.37-3.04,4.46-5.65,6.03c-2.01,1.21-4.41,2.16-7.11,2.81
	c-1.34,0.32-2.35,0.66-3.28,0.61c-0.88-0.04-1.37-0.44-1.37-0.44c-4.2-2.8-7.71-6.52-10.17-10.76c-2.82-4.88-4.29-10.45-4.26-16.12
	c0.01-2.54,0.33-5.08,0.95-7.55c0,0,0.48-1.19,1.04-0.12c0.03,0.12,0.06,0.23,0.1,0.34c0.02,0.07,0.05,0.15,0.07,0.23
	c0.05,0.15,0.09,0.27,0.13,0.39c0.03,0.1,0.06,0.19,0.1,0.27c0.04,0.12,0.09,0.24,0.13,0.35c0.04,0.09,0.07,0.18,0.11,0.27
	c0.05,0.12,0.1,0.24,0.15,0.36c0.04,0.09,0.08,0.18,0.13,0.28c0.06,0.12,0.11,0.23,0.17,0.35l0.14,0.27
	c0.06,0.12,0.13,0.24,0.19,0.36c0.06,0.12,0.11,0.19,0.15,0.27c0.06,0.11,0.13,0.22,0.2,0.34c0,0,0.13,0.21,0.17,0.28
	c0.07,0.11,0.15,0.23,0.23,0.34c0,0,0.14,0.21,0.19,0.27c0.1,0.14,0.2,0.28,0.31,0.42c0,0,0.11,0.15,0.14,0.2
	c0.15,0.2,0.32,0.4,0.49,0.6c0,0,0.03,0.04,0.04,0.04c0.15,0.17,0.32,0.37,0.49,0.55c0.04,0.04,0.19,0.2,0.19,0.2
	c0.12,0.12,0.24,0.25,0.37,0.38c0.05,0.05,0.26,0.25,0.26,0.25c0.11,0.11,0.23,0.21,0.34,0.32c0.07,0.06,0.27,0.24,0.27,0.24
	c0.12,0.1,0.24,0.21,0.38,0.32c0.09,0.08,0.18,0.14,0.27,0.22c0.16,0.13,0.29,0.23,0.43,0.33c0.1,0.08,0.21,0.16,0.32,0.23
	c0.14,0.1,0.28,0.2,0.42,0.3c0.11,0.07,0.22,0.15,0.33,0.23c0.14,0.1,0.29,0.19,0.45,0.29c0.11,0.08,0.23,0.15,0.35,0.22
	c0.15,0.09,0.31,0.19,0.47,0.28c0,0,0.26,0.16,0.37,0.22c0.15,0.09,0.32,0.18,0.48,0.26c0,0,0.33,0.18,0.41,0.22
	c0.17,0.08,0.34,0.17,0.51,0.26l0.42,0.2c0.2,0.1,0.41,0.19,0.62,0.28l0.36,0.16c0.26,0.11,0.52,0.22,0.79,0.33l0.22,0.09
	c0.37,0.14,0.73,0.28,1.1,0.41l0.29,0.1c0.27,0.09,0.55,0.19,0.84,0.28l0.49,0.15c0.23,0.07,0.46,0.14,0.69,0.21
	c0.12,0.04,0.5,0.14,0.5,0.14c0.24,0.06,0.48,0.13,0.73,0.2c0.14,0.04,0.59,0.15,0.59,0.15c0.23,0.05,0.46,0.11,0.7,0.17
	c0.17,0.04,0.58,0.13,0.58,0.13c0.25,0.06,0.51,0.11,0.77,0.16c0.2,0.04,0.4,0.08,0.61,0.12c0.26,0.05,0.52,0.1,0.79,0.14
	c0.21,0.04,0.42,0.07,0.64,0.11c0.27,0.05,0.55,0.09,0.83,0.13c0.22,0.03,0.44,0.06,0.66,0.1c0.29,0.04,0.58,0.08,0.87,0.12
	c0,0,0.46,0.06,0.68,0.08c0.27,0.03,0.55,0.06,0.83,0.09c0,0,0.61,0.06,0.77,0.08c0.29,0.03,0.59,0.06,0.9,0.08
	c0,0,0.63,0.06,0.77,0.07c0.36,0.03,0.72,0.05,1.09,0.07l0.64,0.04C-85.86,211.44-85.4,211.51-85.3,212.28z"/>
<path fill="#B2D8B4" stroke="#B2D8B4" stroke-miterlimit="10" d="M-111.97,184.52c0.13-0.17,0.25-0.33,0.37-0.5
	c2.56-3.38,5.81-6.25,9.44-8.36c4.85-2.82,10.38-4.3,16.02-4.3h0.08c3.36,0.01,6.73,0.56,9.91,1.6c0.09,0.03,0.18,0.06,0.27,0.09
	c0,0,1.37,0.61,0.06,1.34c-0.1,0.05-0.21,0.06-0.32,0.09c-1.44,0.42-2.8,0.92-4.05,1.5c-3.43,1.56-6.08,3.65-7.9,6.19
	c-2.27,3.19-3.22,7.22-2.76,11.68c0.26,2.51,0.93,5.12,2.05,7.99c0.29,0.75,0.61,1.48,0.91,2.19c0.31,0.71,0.63,1.44,0.9,2.16
	c0,0,0.9,1.7-0.32,1.6c-0.13-0.01-0.63-0.05-0.63-0.05c-0.35-0.03-0.66-0.06-0.96-0.08c-0.15-0.01-0.65-0.07-0.65-0.07
	c-0.3-0.03-0.59-0.07-0.88-0.1c-0.2-0.02-0.65-0.08-0.65-0.08c-0.26-0.03-0.54-0.07-0.81-0.11l-0.63-0.09
	c-0.26-0.04-0.52-0.08-0.77-0.12c-0.2-0.03-0.4-0.07-0.6-0.1c-0.25-0.05-0.5-0.09-0.75-0.14c-0.19-0.04-0.38-0.07-0.57-0.11
	c-0.24-0.05-0.48-0.1-0.71-0.15c0,0-0.39-0.08-0.54-0.12c-0.23-0.06-0.46-0.11-0.69-0.17c0,0-0.39-0.1-0.5-0.12
	c-0.23-0.06-0.45-0.12-0.68-0.19c0,0-0.36-0.1-0.46-0.12c-0.2-0.06-0.39-0.12-0.58-0.18c0,0-0.42-0.13-0.5-0.15
	c-0.26-0.08-0.52-0.17-0.77-0.26l-0.27-0.09c-0.32-0.11-0.64-0.23-0.96-0.36l-0.2-0.08c-0.25-0.1-0.48-0.2-0.71-0.29l-0.32-0.14
	c-0.19-0.08-0.38-0.17-0.55-0.25l-0.37-0.18c-0.15-0.07-0.3-0.15-0.45-0.22c-0.08-0.04-0.33-0.18-0.33-0.18
	c-0.14-0.08-0.29-0.16-0.44-0.24l-0.32-0.19c-0.13-0.08-0.27-0.16-0.4-0.24c-0.1-0.06-0.2-0.12-0.31-0.19
	c-0.12-0.08-0.25-0.16-0.38-0.25c-0.1-0.06-0.19-0.13-0.28-0.19c-0.12-0.09-0.24-0.17-0.36-0.25c-0.09-0.07-0.18-0.13-0.26-0.2
	c-0.11-0.08-0.22-0.17-0.33-0.26c-0.09-0.08-0.17-0.13-0.24-0.2c-0.11-0.09-0.21-0.18-0.32-0.27c0,0-0.17-0.14-0.22-0.19
	c-0.08-0.07-0.16-0.15-0.24-0.23c0,0-0.2-0.19-0.25-0.24c-0.11-0.11-0.21-0.22-0.32-0.32l-0.15-0.16c-0.13-0.14-0.27-0.3-0.4-0.45
	c-0.01-0.01-0.04-0.04-0.05-0.05c-0.11-0.13-0.24-0.3-0.37-0.46l-0.11-0.14c-0.09-0.12-0.18-0.23-0.25-0.34
	c-0.03-0.05-0.12-0.18-0.12-0.18c-0.09-0.13-0.15-0.22-0.2-0.31l-0.13-0.2c-0.07-0.11-0.12-0.19-0.17-0.28l-0.1-0.17
	c-0.07-0.13-0.13-0.23-0.18-0.32l-0.12-0.22c-0.04-0.08-0.09-0.18-0.13-0.27c-0.04-0.08-0.07-0.15-0.1-0.22
	c-0.04-0.09-0.08-0.18-0.12-0.27c-0.03-0.07-0.06-0.14-0.09-0.21c-0.04-0.1-0.07-0.18-0.11-0.28l-0.08-0.22
	c-0.03-0.09-0.11-0.32-0.11-0.32l-0.05-0.16c-0.03-0.09-0.05-0.18-0.07-0.26l-0.07-0.25c-0.02-0.08-0.05-0.19-0.07-0.29l-0.05-0.2
	c-0.02-0.1-0.05-0.22-0.07-0.34l-0.03-0.14c-0.03-0.14-0.06-0.31-0.08-0.46l-0.01-0.08c-0.02-0.14-0.04-0.26-0.05-0.39
	c0,0-0.04-0.38-0.05-0.48c0,0-0.03-0.37-0.03-0.46c0,0-0.02-0.37-0.02-0.46l0-0.45l0.01-0.43l0-0.2c0-0.08,0.02-0.43,0.02-0.43
	l0.03-0.41c0-0.07,0.04-0.39,0.04-0.39l0.05-0.38c0.01-0.08,0.06-0.38,0.06-0.38c0.04-0.23,0.08-0.46,0.13-0.69l0.09-0.43l0.07-0.3
	l0.07-0.28l0.07-0.26C-112.55,185.9-112.2,184.84-111.97,184.52z"/>
</svg>
