<?xml version="1.0" encoding="utf-8"?>
<!-- Generator: Adobe Illustrator 16.0.4, SVG Export Plug-In . SVG Version: 6.00 Build 0)  -->
<svg version="1.2" baseProfile="tiny" id="Layer_1" xmlns="http://www.w3.org/2000/svg" xmlns:xlink="http://www.w3.org/1999/xlink"
	 x="0px" y="0px" width="233.96px" height="50px" viewBox="0 0 233.96 50" overflow="visible" xml:space="preserve">
<g>
	<path fill-rule="evenodd" fill="#147DC0" d="M72.03,22.96c0.72-4.15,2.78-7.45,6.3-9.77c1.83-1.2,3.86-1.91,6.05-2.17
		c2.68-0.32,5.22,0.15,7.66,1.27c0.12,0.05,0.22,0.15,0.36,0.14c0.86,0.49,1.7,1.03,2.5,1.62c0.76,0.7,1.52,1.4,2.16,2.22
		c1.62,2.09,2.62,4.43,2.95,7.06c0,0.3-0.04,0.61,0.08,0.9c0.01,0.11,0.01,0.23,0.02,0.34c-0.01,0.04-0.03,0.07-0.04,0.11
		c-0.41,0.28-0.83,0.56-1.24,0.83c-1.24,0.79-2.47,1.61-3.74,2.37c-0.96,0.57-1.92,1.15-2.89,1.71c-1.22,0.7-2.46,1.34-3.71,1.98
		c-1.78,0.92-3.59,1.78-5.44,2.57c-1.74,0.74-3.46,1.54-5.28,2.08c-0.11,0.03-0.1,0.13-0.11,0.22c-0.16-0.02-0.17-0.26-0.36-0.24
		c-0.02-0.02-0.03-0.05-0.06-0.07c-3.19-2.59-4.96-5.93-5.32-10.02C71.94,25.04,71.9,24,72.03,22.96z"/>
	<path fill-rule="evenodd" fill="#147DC0" d="M4.32,19.66c0-6.01,0-12.03,0-18.04c0-0.71-0.06-0.61,0.63-0.61
		c7.96,0,15.93,0,23.89-0.01c0.39,0,0.57,0.08,0.53,0.51c-0.04,0.4-0.02,0.8,0,1.2c0.01,0.26-0.09,0.35-0.34,0.33
		c-0.12-0.01-0.24,0-0.36,0c-7.16,0-14.32,0-21.48-0.01c-0.44,0-0.57,0.09-0.57,0.56c0.02,4.6,0.02,9.2,0,13.8
		c0,0.43,0.12,0.54,0.55,0.54c6.77-0.01,13.55,0,20.32-0.02c0.45,0,0.62,0.11,0.57,0.57c-0.04,0.32-0.04,0.66,0,0.98
		c0.05,0.41-0.12,0.49-0.5,0.48c-6.77-0.01-13.55-0.01-20.32-0.01c-0.61,0-0.61,0-0.61,0.59c0,5.08,0,10.15,0,15.23
		c0,0.59,0,0.59,0.58,0.59c7.28,0,14.56,0,21.84,0c0.58,0,0.58,0,0.58,0.56c0,0.37-0.01,0.74,0,1.12c0.01,0.23-0.08,0.33-0.31,0.31
		c-0.07-0.01-0.15,0-0.22,0c-8.08,0-16.17,0-24.25,0.01c-0.44,0-0.54-0.12-0.54-0.54C4.33,31.75,4.32,25.7,4.32,19.66z"/>
	<path fill-rule="evenodd" fill="#147DC0" d="M103.32,47.9c-0.02-0.04-0.03-0.07-0.05-0.11c0.01-0.04,0.03-0.09,0.03-0.13
		c-0.01-3.7-0.01-7.41-0.02-11.11c0.01-0.13,0.02-0.27,0.02-0.4c0-7.19,0-14.39,0-21.58c0-0.15-0.03-0.29-0.05-0.44
		c0.07-0.83,0.06-1.66,0.01-2.49c0.06-0.21,0.24-0.18,0.4-0.19c0.53,0,1.06,0,1.58-0.01c0.01,0.19,0.02,0.38,0.03,0.58
		c0.01,1.62,0.01,3.24,0.02,4.86c0,0.23,0,0.46,0,0.73c0.24-0.22,0.27-0.48,0.33-0.73c0.83-1.84,2.08-3.33,3.77-4.46
		c0.38-0.2,0.74-0.43,1.13-0.61c1.26-0.59,2.59-0.9,3.98-0.97c0.95-0.05,1.89,0,2.83,0.17c0.95,0.15,1.87,0.4,2.75,0.78
		c1.84,0.8,3.32,2.04,4.47,3.67c1.42,2.02,2.18,4.31,2.48,6.73c0.31,2.54,0.25,5.08-0.34,7.58c-0.52,2.19-1.42,4.2-3,5.85
		c-1.59,1.66-3.54,2.62-5.79,3.05c-1.55,0.3-3.11,0.35-4.66,0.14c-3.55-0.5-6.24-2.22-7.68-5.62c-0.06-0.14-0.11-0.26-0.28-0.41
		c0,0.2,0,0.36,0,0.51c0,4.64,0,9.29,0,13.93c0,0.21-0.01,0.42-0.01,0.63C104.61,47.88,103.97,47.89,103.32,47.9z M106.24,19.19
		c-0.59,1.44-0.78,2.96-0.86,4.5c-0.01,0.18-0.02,0.35-0.03,0.53c-0.1,0.53-0.1,1.06,0,1.6c0,0.64,0.08,1.27,0.14,1.91
		c0.17,1.65,0.59,3.23,1.31,4.72c1.2,2.48,3.18,3.97,5.85,4.51c1.73,0.35,3.47,0.33,5.21-0.11c2.62-0.67,4.47-2.28,5.72-4.62
		c1.09-2.05,1.5-4.29,1.6-6.59c0.07-1.78-0.12-3.53-0.58-5.25c-0.55-2.07-1.47-3.92-3.04-5.4c-1.29-1.21-2.8-1.96-4.56-2.21
		c-0.09-0.08-0.19-0.09-0.3-0.06c-0.06,0-0.11,0-0.17,0c-0.85-0.12-1.7-0.12-2.56-0.05c-1.47,0.13-2.83,0.55-4.05,1.38
		c-0.08,0.04-0.16,0.07-0.23,0.12c-0.97,0.7-1.78,1.56-2.38,2.58C106.86,17.51,106.41,18.29,106.24,19.19z"/>
	<path fill-rule="evenodd" fill="#147DC0" d="M158.38,33.11c-0.42,0.68-0.81,1.35-1.29,1.97c-1.03,1.31-2.34,2.25-3.86,2.9
		c-2.08,0.9-4.26,1.11-6.51,0.89c-1.43-0.14-2.8-0.45-4.08-1.15c-1.79-0.99-2.78-2.52-3.16-4.5c-0.25-1.32-0.24-2.63,0.06-3.93
		c0.47-2.05,1.71-3.48,3.56-4.41c1.52-0.76,3.15-1.1,4.82-1.32c2.06-0.27,4.15-0.28,6.21-0.61c0.95-0.16,1.9-0.32,2.76-0.78
		c0.77-0.41,1.23-1.04,1.35-1.91c0.15-1.08,0.31-2.15,0.01-3.23c-0.48-1.75-1.64-2.94-3.25-3.64c-2.45-1.07-4.99-1.07-7.49-0.26
		c-2.54,0.82-4.1,2.6-4.59,5.25c-0.06,0.35-0.13,0.7-0.18,1.05c-0.03,0.25-0.12,0.37-0.4,0.35c-0.42-0.02-0.83-0.01-1.25,0
		c-0.26,0.01-0.39-0.08-0.37-0.36c0.21-3.63,1.89-6.77,5.86-7.98c2.54-0.77,5.12-0.77,7.72-0.31c1.36,0.24,2.62,0.69,3.74,1.52
		c1.54,1.15,2.25,2.75,2.3,4.61c0.06,2.16,0.02,4.32,0.02,6.48c0,3.36,0,6.73,0,10.09c0,0.56,0.01,1.13,0.22,1.67
		c0.3,0.76,0.71,1.05,1.52,1.05c0.4,0,0.8-0.06,1.2-0.11c0.21-0.02,0.3,0.05,0.29,0.27c-0.01,0.18,0,0.36,0,0.54
		c0,1.13,0.08,0.9-0.92,1.02c-1.07,0.13-2.14,0.08-3.1-0.54c-0.53-0.34-0.84-0.83-1-1.42c-0.2-0.74-0.25-1.49-0.23-2.26
		C158.39,33.75,158.38,33.43,158.38,33.11z M158.34,23.27c-0.59,0.45-1.22,0.76-1.91,0.94c-1.8,0.48-3.67,0.54-5.51,0.71
		c-1.85,0.17-3.7,0.35-5.47,0.93c-1.21,0.39-2.32,0.98-3.1,2.04c-0.92,1.24-1.1,2.68-0.96,4.15c0.15,1.59,0.84,2.91,2.19,3.85
		c1.1,0.77,2.33,1.12,3.66,1.24c2.11,0.19,4.15-0.02,6.08-0.94c2.7-1.29,4.19-3.52,4.84-6.35
		C158.64,27.68,158.27,25.47,158.34,23.27z"/>
	<path fill-rule="evenodd" fill="#147DC0" d="M213.44,14.84c0.63,0.84,1.17,1.72,1.59,2.69c0.55,1.26,0.89,2.58,1.08,3.93
		c0.15,1.02,0.15,2.05,0.13,3.07c-0.01,0.75,0.07,0.65-0.64,0.65c-6.76,0-13.52,0-20.28,0c-0.74,0-0.75,0-0.73,0.77
		c0.04,2.48,0.6,4.82,1.93,6.94c1.23,1.97,2.95,3.32,5.22,3.95c1.66,0.46,3.33,0.48,4.99,0.13c2.69-0.56,4.76-2.01,6.1-4.45
		c0.52-0.94,0.86-1.94,1.11-2.97c0.06-0.25,0.15-0.34,0.41-0.33c0.45,0.02,0.89,0.02,1.34,0c0.27-0.01,0.35,0.09,0.3,0.34
		c-0.53,2.59-1.51,4.94-3.55,6.73c-1.44,1.26-3.13,2.01-5,2.38c-1.65,0.33-3.31,0.4-4.97,0.15c-2.57-0.39-4.8-1.47-6.56-3.42
		c-1.55-1.71-2.48-3.73-2.96-5.97c-0.47-2.18-0.5-4.39-0.26-6.61c0.16-1.5,0.49-2.95,1.03-4.36c1.01-2.62,2.6-4.79,5.08-6.21
		c2.02-1.16,4.22-1.53,6.52-1.39c0.94,0.05,1.85,0.24,2.77,0.43c0.06,0.05,0.11,0.1,0.17,0.14c0.08,0.82,0.42,1.53,0.95,2.16
		c0.08,0.09,0.29,0.14,0.16,0.34c-0.06-0.02-0.12-0.03-0.17-0.06c-1.94-1.18-4.05-1.49-6.26-1.15c-2.27,0.35-4.08,1.54-5.51,3.31
		c-1.65,2.04-2.49,4.41-2.82,6.99c-0.05,0.38,0.11,0.4,0.42,0.4c6.26-0.01,12.53-0.01,18.79,0c0.41,0,0.46-0.15,0.41-0.5
		c-0.14-1-0.24-2-0.55-2.97c-0.35-1.1-0.79-2.15-1.43-3.12c-0.56-0.86-1.27-1.59-2.01-2.29c0.25-0.06,0.44,0.12,0.66,0.19
		c0.81,0.25,1.62,0.32,2.44,0.04C213.38,14.8,213.41,14.82,213.44,14.84z"/>
	<path fill-rule="evenodd" fill="#147DC0" d="M52.39,32.74c-0.62,1.35-1.4,2.54-2.48,3.52c-1.37,1.25-2.97,2.02-4.78,2.43
		c-1.47,0.33-2.96,0.34-4.43,0.13c-2.44-0.34-4.56-1.31-5.94-3.47c-0.96-1.5-1.4-3.16-1.49-4.92c-0.32-6.19-0.06-12.38-0.15-18.57
		c0-0.31,0.11-0.43,0.41-0.41c0.39,0.02,0.78,0.03,1.16,0c0.38-0.03,0.52,0.08,0.51,0.49c-0.03,1.18-0.01,2.35-0.01,3.53
		c0.01,4.84-0.03,9.68,0.06,14.51c0.04,1.98,0.62,3.86,2.1,5.33c1.03,1.02,2.31,1.54,3.71,1.75c1.23,0.19,2.46,0.18,3.69-0.05
		c2.69-0.52,4.71-1.99,6.07-4.37c1.07-1.88,1.56-3.94,1.57-6.09c0.02-4.85,0.02-9.7,0-14.56c0-0.43,0.11-0.58,0.54-0.54
		c0.38,0.04,0.77,0.02,1.16,0c0.26-0.01,0.35,0.1,0.33,0.34c-0.01,0.07,0,0.15,0,0.22c0,8.57,0,17.15,0,25.72
		c0,0.58,0,0.58-0.57,0.58c-0.34,0-0.69-0.02-1.03,0.01c-0.33,0.02-0.43-0.08-0.43-0.42c0.02-1.62,0.01-3.24,0.01-4.87
		C52.41,32.94,52.4,32.84,52.39,32.74z"/>
	<path fill-rule="evenodd" fill="#147DC0" d="M168.72,17.15c0.39-0.7,0.63-1.34,1.01-1.9c1.18-1.76,2.78-2.99,4.75-3.72
		c2.44-0.91,4.92-0.92,7.41-0.26c2.71,0.71,4.51,2.44,5.39,5.11c0.43,1.3,0.63,2.63,0.63,3.98c0.01,5.85,0,11.7,0.02,17.55
		c0,0.35-0.12,0.43-0.44,0.41c-0.36-0.02-0.72-0.04-1.07,0c-0.41,0.04-0.49-0.12-0.49-0.5c0.01-5.72,0.02-11.43-0.01-17.15
		c-0.01-1.66-0.28-3.28-1.09-4.77c-0.84-1.55-2.12-2.56-3.81-2.97c-2.74-0.66-5.4-0.46-7.84,1.08c-1.61,1.02-2.71,2.49-3.45,4.24
		c-0.82,1.91-1.04,3.91-1.04,5.95c0,4.53-0.01,9.05,0.01,13.58c0,0.43-0.11,0.58-0.54,0.54c-0.4-0.04-0.8-0.01-1.21-0.01
		c-0.21,0.01-0.31-0.07-0.29-0.29c0.01-0.09,0-0.18,0-0.27c0-8.59,0-17.18-0.01-25.77c0-0.42,0.09-0.6,0.53-0.55
		c0.32,0.04,0.66,0.03,0.98,0c0.4-0.04,0.54,0.08,0.53,0.51c-0.03,1.53-0.01,3.07-0.01,4.6C168.69,16.72,168.71,16.87,168.72,17.15z
		"/>
	<path fill-rule="evenodd" fill="#CCE3F1" d="M77.32,36.18c0.19-0.02,0.2,0.22,0.36,0.24c0.71,0.49,1.41,0.99,2.23,1.29
		c0.01,0.03,0.01,0.05,0.01,0.08c-1.74,0.67-3.47,1.37-5.23,2.01c-0.62,0.23-1.26,0.41-1.87,0.67c-0.23-0.3-0.41-0.31-0.51,0.09
		c-1,0.33-2.01,0.65-3.03,0.93c-0.89,0.24-1.79,0.44-2.67,0.73c-0.42,0.14-0.89,0.09-1.31,0.23c-0.64,0.21-1.33,0.16-1.97,0.4
		c-0.29,0.11-0.64,0.07-0.97,0.11c-1.26,0.14-2.52,0.15-3.78,0.09c-1.08-0.05-2.13-0.28-3.03-0.95c-1.05-0.78-1.18-1.93-0.87-2.96
		c0.5-1.65,1.5-2.99,2.57-4.3c0.81-0.99,1.7-1.89,2.62-2.77c0.19-0.18,0.3-0.35,0.29-0.61c-0.01-0.13-0.04-0.27,0.08-0.38
		c0.01,0.22,0.02,0.44,0.02,0.66c0,2.08,0,4.15-0.01,6.23c0,0.19,0,0.36,0.27,0.35c0.5-0.01,1.01-0.01,1.51,0
		c0.2,0,0.25-0.11,0.27-0.27c0.13,0.01,0.21,0.1,0.3,0.18c0.46,0.38,1.03,0.51,1.58,0.62c1.26,0.24,2.54,0.1,3.81,0
		c0.4-0.03,0.8-0.17,1.2-0.26c0.12-0.02,0.24,0.18,0.35,0c0.48-0.1,0.95-0.2,1.43-0.31c1.61-0.36,3.18-0.84,4.76-1.32
		c0.49-0.15,0.97-0.34,1.46-0.51C77.36,36.4,77.37,36.31,77.32,36.18z"/>
	<path fill-rule="evenodd" fill="#147DC0" d="M222.87,23.44c0-3.23-0.01-6.46,0.01-9.69c0-0.43-0.12-0.56-0.55-0.55
		c-1.31,0.03-2.62,0-3.93,0.02c-0.37,0-0.52-0.11-0.48-0.48c0.04-0.4-0.16-0.91,0.08-1.17c0.26-0.29,0.79-0.09,1.2-0.1
		c1.04-0.02,2.08-0.04,3.12,0.01c0.48,0.02,0.56-0.15,0.56-0.58c-0.02-2.43,0-4.85-0.02-7.28c0-0.39,0.09-0.54,0.49-0.5
		c0.37,0.04,0.75,0.03,1.11,0c0.33-0.03,0.43,0.08,0.43,0.42c-0.02,2.1-0.01,4.2-0.01,6.3c0,0.39,0.02,0.78-0.01,1.16
		c-0.03,0.37,0.08,0.48,0.46,0.48c1.64-0.02,3.28,0,4.91-0.02c0.41-0.01,0.57,0.11,0.51,0.52c-0.05,0.39,0.17,0.89-0.1,1.15
		c-0.25,0.24-0.74,0.07-1.12,0.08c-1.4,0.01-2.8,0.01-4.2,0c-0.33,0-0.47,0.05-0.47,0.43c0.01,6.21,0,12.41,0.02,18.62
		c0,1.03,0.14,2.07,0.78,2.96c0.56,0.79,1.36,1.1,2.26,1.25c0.78,0.13,1.57,0.12,2.36,0.11c0.28-0.01,0.41,0.07,0.39,0.38
		c-0.02,0.36-0.01,0.71,0,1.07c0.01,0.23-0.08,0.31-0.31,0.31c-1.37,0-2.73,0.09-4.06-0.35c-1.47-0.48-2.52-1.38-3.04-2.87
		c-0.29-0.84-0.41-1.69-0.41-2.57C222.87,29.51,222.87,26.47,222.87,23.44C222.87,23.44,222.87,23.44,222.87,23.44z"/>
	<path fill-rule="evenodd" fill="#147DC0" d="M79.91,37.79c0-0.03,0-0.05-0.01-0.08c0.16,0,0.32-0.04,0.47-0.11
		c0.87-0.39,1.75-0.76,2.63-1.16c1.05-0.47,2.09-0.95,3.13-1.44c1.16-0.55,2.31-1.12,3.45-1.7c0.89-0.45,1.76-0.94,2.65-1.4
		c0.6-0.31,1.18-0.65,1.76-0.99c0.85-0.5,1.73-0.95,2.58-1.45c1.11-0.66,2.21-1.35,3.31-2.03c0.01,0.03,0.02,0.06,0.04,0.09
		c-0.51,2.51-1.52,4.77-3.21,6.72c-1.95,2.24-4.36,3.73-7.25,4.47c-2.16,0.56-4.32,0.57-6.48,0.12
		C81.92,38.61,80.9,38.24,79.91,37.79z"/>
	<path fill-rule="evenodd" fill="#147DC0" d="M62.32,38.05c-0.02,0.16-0.08,0.27-0.27,0.27c-0.5-0.01-1.01-0.01-1.51,0
		c-0.27,0.01-0.27-0.16-0.27-0.35c0-2.08,0.01-4.15,0.01-6.23c0-0.22-0.01-0.44-0.02-0.66c0-0.15,0.01-0.3,0.01-0.44
		c0-6.36,0-12.73,0-19.09c0.04-0.03,0.07-0.06,0.11-0.09c0.49,0,0.98,0.02,1.47,0c0.35-0.02,0.46,0.09,0.46,0.45
		c-0.02,1.7-0.01,3.39-0.01,5.09c0,0.12,0,0.24,0,0.44c0.29-0.39,0.35-0.8,0.54-1.15c0.82-1.52,2.04-2.63,3.53-3.47
		c1.82-1.03,3.79-1.47,5.87-1.54c0.38-0.01,0.5,0.11,0.47,0.47c-0.03,0.38-0.02,0.77,0,1.16c0.02,0.31-0.07,0.41-0.4,0.39
		c-0.92-0.04-1.84-0.02-2.74,0.23c-1.6,0.44-3.03,1.18-4.21,2.35c-1.46,1.45-2.45,3.15-2.82,5.22c-0.31,1.76-0.2,3.53-0.24,5.29
		c-0.02,1.15,0.01,2.29,0.01,3.44c-0.01,1.58-0.05,3.17,0.02,4.75C62.26,35.74,62.28,36.9,62.32,38.05z"/>
	<path fill-rule="evenodd" fill="#CCE3F1" d="M117.32,11.02c-0.94-0.17-1.88-0.22-2.83-0.17c-1.39,0.07-2.72,0.38-3.98,0.97
		c-0.39,0.18-0.75,0.4-1.13,0.61c0.03-0.19-0.06-0.3-0.23-0.39c-0.42-0.22-0.84-0.42-1.3-0.5c-0.86-0.15-1.74-0.11-2.61-0.09
		c-0.53,0-1.06,0-1.58,0.01c-0.16,0-0.33-0.02-0.4,0.18c-0.02,0.03-0.03,0.06-0.05,0.08c-0.16-0.02-0.33-0.06-0.46,0.08
		c-0.11-0.09-0.05-0.33-0.24-0.33c-0.19,0-0.26,0.16-0.29,0.34c-0.03,0.03-0.05,0.05-0.08,0.08l0,0c-0.19,0.01-0.39-0.01-0.58,0.04
		c-1.08,0.27-2.16,0.55-3.23,0.85c-1.07,0.31-2.14,0.66-3.2,0.98c-0.15,0.05-0.23,0.13-0.23,0.28c-0.8-0.59-1.64-1.13-2.5-1.62
		c1.22-0.47,2.43-0.97,3.66-1.42c0.97-0.36,1.93-0.77,2.95-1c0.1,0.04,0.13,0.23,0.29,0.15c0.1-0.05,0.07-0.15,0.07-0.24
		c0.4-0.34,0.92-0.37,1.39-0.51C102.13,9,103.5,8.6,104.9,8.3c1.06-0.23,2.12-0.48,3.2-0.65c0.69-0.11,1.39-0.11,2.05-0.26
		c0.98-0.23,1.96-0.19,2.92-0.12c0.99,0.08,2.01,0.21,2.91,0.75c0.91,0.56,1.4,1.33,1.37,2.41
		C117.33,10.63,117.33,10.83,117.32,11.02z"/>
	<path fill-rule="evenodd" fill="#147DC0" d="M132.32,19.66c0-6.03,0-12.06,0-18.08c0-0.57,0-0.57,0.58-0.57
		c0.36,0,0.71,0.01,1.07,0c0.26-0.01,0.35,0.1,0.33,0.34c-0.01,0.09,0,0.18,0,0.27c0,12.04,0,24.08,0,36.12
		c0,0.67,0.06,0.58-0.6,0.59c-0.36,0-0.71-0.01-1.07,0c-0.24,0.01-0.32-0.09-0.3-0.31c0.01-0.12,0-0.24,0-0.36
		C132.32,31.66,132.32,25.66,132.32,19.66z"/>
	<path fill-rule="evenodd" fill="#CFCFCF" d="M213.44,14.84c-0.03-0.02-0.06-0.04-0.09-0.06c-0.74-0.95-1.63-1.73-2.67-2.33
		c-0.76-0.44-1.53-0.89-2.43-1.01c-0.06-0.05-0.11-0.1-0.17-0.14c0.18-0.47,0.11-0.99,0.28-1.46c0.5-1.43,1.39-2.39,2.93-2.79
		c1.11-0.28,2.08-0.08,3.01,0.46c1.17,0.69,1.88,1.71,1.94,3.12c0.04,0.9-0.11,1.73-0.6,2.5c-0.45,0.71-1.08,1.16-1.8,1.53
		C213.7,14.7,213.57,14.78,213.44,14.84z"/>
	<path fill-rule="evenodd" fill="#CCE3F1" d="M62.32,34.59c-0.07-1.58-0.03-3.17-0.02-4.75c0.4-0.09,0.63-0.44,0.92-0.67
		c1.6-1.28,3.25-2.5,4.93-3.66c1.15-0.79,2.33-1.55,3.48-2.35c0.12-0.08,0.26-0.13,0.39-0.2c-0.13,1.04-0.09,2.09-0.09,3.13
		c-0.1-0.11-0.12-0.42-0.36-0.18c-0.19,0.2-0.45,0.28-0.66,0.45c-1.55,1.22-3.16,2.37-4.58,3.76c-0.09,0.09-0.23,0.12-0.35,0.18
		c-0.02-0.21,0.02-0.45-0.27-0.56c-0.2,0.51-0.35,1.08-1.12,0.93c-0.19-0.04-0.11,0.15-0.04,0.24c0.16,0.18,0.34,0.36,0.51,0.54
		c-0.07,0.03-0.16,0.04-0.2,0.08c-0.57,0.63-1.17,1.23-1.67,1.94C62.93,33.85,62.75,34.31,62.32,34.59z"/>
	<path fill-rule="evenodd" fill="#CCE3F1" d="M99.93,27.52c-0.01-0.03-0.02-0.06-0.04-0.09c0.18-0.91,0.24-1.84,0.19-2.77
		c0.01-0.04,0.03-0.07,0.04-0.11c1.04-0.66,1.97-1.46,2.98-2.17c0.13-0.09,0.12-0.23,0.11-0.36c0-2.63-0.01-5.25-0.01-7.88
		c0.02-0.01,0.03-0.02,0.05-0.02c0.02,0.15,0.05,0.29,0.05,0.44c0,7.19,0,14.39,0,21.58c0,0.13-0.02,0.27-0.02,0.4
		c-0.02,0-0.04,0-0.06,0c0-3.73,0-7.45,0-11.27c-0.88,0.58-1.68,1.11-2.49,1.65C100.46,27.11,100.13,27.24,99.93,27.52z"/>
	<path fill-rule="evenodd" fill="#CFCFCF" d="M103.22,36.55c0.02,0,0.04,0,0.06,0c0.01,3.7,0.01,7.4,0.02,11.11
		c0,0.04-0.02,0.09-0.03,0.13c-0.09-0.15-0.05-0.32-0.05-0.48c0-2.75-0.02-5.49,0.01-8.24c0-0.47-0.26-0.7-0.55-0.94
		c-0.17-0.14-0.33-0.05-0.47,0.09c-0.16,0.16-0.33,0.32-0.52,0.49c-0.03-0.09-0.06-0.12-0.05-0.14c0.26-0.61,0.24-1.14-0.34-1.57
		c-0.09-0.07-0.23-0.3,0.02-0.25c0.77,0.15,0.89-0.41,1.1-0.9c0.01-0.01,0.02-0.02,0.04-0.05c0.22,0.2,0.26,0.49,0.37,0.74
		C102.95,36.77,103.08,36.81,103.22,36.55z"/>
	<path fill-rule="evenodd" fill="#CFCFCF" d="M87.17,45.55c-0.11,0.22-0.32,0.36-0.53,0.48c-0.37,0.23-0.43,0.52-0.23,0.89
		c0.1,0.19,0.21,0.38,0.16,0.65c-0.15-0.12-0.28-0.22-0.4-0.32c-0.62-0.45-0.62-0.45-1.16,0.14c-0.06,0.07-0.11,0.13-0.25,0.14
		c0.02-0.19,0.01-0.38,0.07-0.54c0.2-0.54-0.05-0.9-0.46-1.21c-0.08-0.06-0.21-0.1-0.14-0.24c0.05-0.1,0.16-0.09,0.24-0.07
		c0.58,0.11,0.9-0.13,0.98-0.71c0.01-0.07,0.02-0.15,0.12-0.16s0.13,0.05,0.15,0.13c0.14,0.71,0.61,0.85,1.24,0.75
		c0.06-0.01,0.12,0.01,0.18,0.02C87.13,45.5,87.14,45.52,87.17,45.55z"/>
	<path fill-rule="evenodd" fill="#CFCFCF" d="M98.29,40.23c0.05,0.03,0.07,0.03,0.07,0.04c0.19,0.65,0.57,1,1.29,0.84
		c0.08-0.02,0.19-0.02,0.23,0.08c0.05,0.14-0.08,0.17-0.17,0.22c-0.8,0.56-0.83,0.7-0.38,1.59c0.02,0.04,0.02,0.08,0.05,0.23
		c-0.32-0.24-0.6-0.41-0.84-0.62c-0.17-0.15-0.26-0.19-0.41,0.02c-0.15,0.21-0.35,0.4-0.61,0.53c0-0.07-0.01-0.13,0-0.18
		c0.19-0.6,0.21-1.15-0.38-1.56c-0.21-0.15-0.18-0.25,0.06-0.31c0.25-0.06,0.56,0.14,0.74-0.14C98.08,40.74,98.17,40.49,98.29,40.23
		z"/>
	<path fill-rule="evenodd" fill="#CFCFCF" d="M72.31,40.57c0.1-0.41,0.28-0.39,0.51-0.09c0.06,0.63,0.06,0.63,0.69,0.63
		c0.1,0,0.21,0,0.31,0c0.09,0,0.19,0.02,0.22,0.12c0.04,0.12-0.08,0.14-0.14,0.2c-0.09,0.08-0.18,0.16-0.28,0.22
		c-0.4,0.22-0.52,0.5-0.25,0.9c0.09,0.14,0.17,0.35,0.04,0.45c-0.15,0.11-0.31-0.09-0.4-0.19c-0.32-0.34-0.58-0.36-0.87,0.04
		c-0.06,0.09-0.18,0.25-0.33,0.16c-0.1-0.07-0.08-0.25-0.03-0.34c0.27-0.5,0.05-0.83-0.34-1.14c-0.1-0.08-0.25-0.17-0.19-0.32
		c0.07-0.18,0.26-0.11,0.4-0.1C72.09,41.16,72.33,41.02,72.31,40.57z"/>
	<path fill-rule="evenodd" fill="#CFCFCF" d="M64.12,26.55c-0.04-0.12-0.02-0.24,0.01-0.35c0.12-0.45,0.12-0.87-0.33-1.17
		c-0.11-0.07-0.28-0.18-0.21-0.35c0.06-0.16,0.24-0.1,0.36-0.09c0.36,0.04,0.59-0.06,0.69-0.44c0.04-0.15,0.15-0.27,0.23-0.41
		c0.12,0.05,0.19,0.13,0.2,0.24c0.03,0.56,0.36,0.68,0.84,0.61c0.09-0.01,0.18,0,0.27,0c0.09,0,0.19-0.01,0.21,0.11
		c0.02,0.08-0.04,0.13-0.11,0.17c-0.62,0.34-0.9,0.79-0.5,1.48c0.02,0.03-0.01,0.08-0.01,0.13c-0.3,0.04-0.46-0.18-0.62-0.36
		c-0.19-0.21-0.32-0.19-0.5,0C64.49,26.28,64.39,26.52,64.12,26.55z"/>
	<path fill-rule="evenodd" fill="#CFCFCF" d="M87.2,3.67C87,4,86.73,4.15,86.5,4.32c-0.23,0.17-0.26,0.32-0.17,0.56
		c0.09,0.23,0.16,0.47,0.24,0.75c-0.34-0.01-0.49-0.27-0.68-0.42c-0.24-0.17-0.36-0.24-0.57,0.03c-0.11,0.13-0.25,0.44-0.45,0.32
		c-0.14-0.09-0.08-0.39,0.02-0.58c0.13-0.27,0.06-0.47-0.17-0.65c-0.13-0.1-0.24-0.23-0.35-0.34c-0.06-0.06-0.16-0.12-0.12-0.22
		c0.04-0.11,0.15-0.08,0.23-0.07c0.59,0.1,0.89-0.17,0.97-0.73c0.01-0.08,0.04-0.15,0.13-0.15c0.09,0,0.11,0.08,0.13,0.15
		c0.13,0.61,0.52,0.83,1.12,0.72C86.93,3.66,87.04,3.67,87.2,3.67z"/>
	<path fill-rule="evenodd" fill="#CFCFCF" d="M99.38,9.92c0,0.09,0.03,0.19-0.07,0.24c-0.15,0.07-0.19-0.11-0.29-0.15
		c-0.05-0.05-0.11-0.09-0.16-0.14c-0.5-0.47-0.5-0.47-0.97,0c-0.09,0.09-0.19,0.18-0.35,0.33c0.03-0.24,0.03-0.41,0.08-0.56
		c0.16-0.53-0.06-0.9-0.46-1.21c-0.06-0.05-0.16-0.11-0.12-0.21c0.03-0.09,0.13-0.08,0.19-0.07c0.69,0.15,0.91-0.27,1.02-0.83
		c0.01-0.04,0.04-0.07,0.13-0.22c0.14,0.96,0.7,1.22,1.55,1.02c0,0.04,0,0.08,0,0.13c-0.17,0.15-0.33,0.3-0.51,0.43
		C98.92,8.98,98.91,9.56,99.38,9.92z"/>
	<path fill-rule="evenodd" fill="#CFCFCF" d="M80.04,5.27c-0.13,0.21-0.35,0.33-0.55,0.47c-0.3,0.21-0.4,0.44-0.18,0.78
		c0.1,0.16,0.2,0.36,0.12,0.61c-0.25-0.09-0.43-0.24-0.59-0.41c-0.25-0.26-0.4-0.19-0.6,0.06c-0.13,0.16-0.3,0.48-0.48,0.37
		c-0.21-0.12,0.01-0.4,0.08-0.6c0.14-0.44-0.09-0.73-0.39-0.99c-0.09-0.08-0.2-0.17-0.17-0.29c0.04-0.15,0.21-0.1,0.31-0.08
		c0.47,0.09,0.64-0.17,0.72-0.57c0.02-0.12,0.08-0.24,0.2-0.26c0.04-0.01,0.15,0.11,0.16,0.18c0.1,0.74,0.64,0.68,1.16,0.65
		C79.89,5.19,79.98,5.17,80.04,5.27z"/>
	<path fill-rule="evenodd" fill="#CFCFCF" d="M73.51,10.13c-0.28-0.07-0.42-0.3-0.61-0.46c-0.24-0.19-0.43-0.23-0.63,0.05
		c-0.07,0.1-0.17,0.17-0.25,0.25c-0.05,0.05-0.12,0.13-0.19,0.06c-0.04-0.04-0.04-0.13-0.05-0.2c0-0.01,0-0.03,0-0.04
		c0.03-0.29,0.25-0.58,0.05-0.88c-0.18-0.26-0.41-0.47-0.65-0.67c0.02-0.01,1.37-0.96,1.37-0.96c0.03,0.01,0.07,0.02,0.07,0.03
		c0.15,0.62,0.48,0.98,1.18,0.82c0.08-0.02,0.19-0.04,0.23,0.07c0.04,0.11-0.07,0.14-0.14,0.2C73.21,9,73.21,9,73.5,9.89
		C73.53,9.96,73.57,10.03,73.51,10.13z"/>
	<path fill-rule="evenodd" fill="#CFCFCF" d="M94.25,5.21c-0.1,0.33-0.35,0.47-0.56,0.59c-0.3,0.17-0.27,0.38-0.18,0.63
		c0.03,0.08,0.11,0.15,0.12,0.23c0.03,0.15,0.22,0.32,0.05,0.44c-0.16,0.11-0.24-0.11-0.34-0.2c-0.51-0.46-0.54-0.46-1.07,0.03
		c-0.07,0.07-0.1,0.22-0.23,0.15c-0.11-0.05-0.06-0.19-0.06-0.28c0-0.07,0.02-0.15,0.05-0.22c0.19-0.42,0.07-0.74-0.32-0.97
		c-0.13-0.07-0.21-0.18-0.17-0.33c0.05-0.15,0.2-0.12,0.31-0.11c0.45,0.07,0.66-0.14,0.72-0.57c0.02-0.11,0.03-0.27,0.17-0.29
		c0.17-0.02,0.17,0.18,0.19,0.26C93.05,5.43,93.73,5.12,94.25,5.21z"/>
	<path fill-rule="evenodd" fill="#CFCFCF" d="M77.14,44.52c0.32-0.1,0.7,0.11,0.95-0.12c0.22-0.2,0.15-0.6,0.45-0.82
		c0.06,0.09,0.18,0.19,0.19,0.29c0.03,0.6,0.41,0.67,0.89,0.62c0.13-0.02,0.26,0,0.43,0c-0.11,0.37-0.46,0.43-0.67,0.64
		c-0.18,0.18-0.22,0.33-0.1,0.54c0.12,0.22,0.19,0.46,0.19,0.73c-0.3-0.07-0.49-0.27-0.67-0.45c-0.22-0.23-0.36-0.21-0.52,0.03
		c-0.02,0.04-0.05,0.07-0.09,0.1c-0.14,0.11-0.25,0.4-0.43,0.3c-0.18-0.11,0.05-0.3,0.1-0.47c0.12-0.44-0.05-0.78-0.38-1.04
		C77.32,44.78,77.21,44.67,77.14,44.52z"/>
	<path fill-rule="evenodd" fill="#CFCFCF" d="M91.39,44.49c0.14,0,0.23-0.01,0.32,0c0.51,0.09,0.79-0.12,0.87-0.62
		c0.02-0.09,0-0.23,0.13-0.25c0.15-0.02,0.15,0.12,0.18,0.21c0.17,0.61,0.58,0.77,1.16,0.66c0.07-0.02,0.15,0,0.24,0
		c-0.16,0.17-0.27,0.38-0.45,0.47c-0.52,0.26-0.41,0.63-0.23,1.03c0.06,0.13,0.16,0.25,0.11,0.42c-0.23,0.03-0.3-0.17-0.43-0.27
		c-0.54-0.4-0.54-0.41-1.01,0.07c-0.08,0.08-0.1,0.26-0.25,0.19c-0.12-0.06-0.1-0.25-0.05-0.32c0.38-0.62-0.05-0.97-0.43-1.35
		C91.5,44.67,91.47,44.6,91.39,44.49z"/>
	<path fill-rule="evenodd" fill="#CFCFCF" d="M66.69,19.57c-0.3,0.02-0.44-0.26-0.64-0.4c-0.22-0.15-0.32-0.11-0.48,0.04
		c-0.17,0.15-0.33,0.34-0.58,0.37l0,0c0.15-0.58,0.22-1.14-0.37-1.54c-0.08-0.06-0.16-0.15-0.12-0.26c0.04-0.1,0.16-0.08,0.24-0.07
		c0.45,0.06,0.75-0.05,0.82-0.56c0.02-0.11,0.1-0.27,0.24-0.29c0.16-0.02,0.18,0.14,0.19,0.25c0.05,0.59,0.43,0.65,0.9,0.6
		c0.12-0.01,0.31-0.08,0.36,0.06c0.07,0.17-0.14,0.2-0.24,0.27c-0.42,0.27-0.74,0.56-0.4,1.11C66.69,19.26,66.7,19.42,66.69,19.57
		L66.69,19.57z"/>
	<path fill-rule="evenodd" fill="#CFCFCF" d="M103.32,47.9c0.65-0.01,1.29-0.01,1.94-0.02C104.62,48.06,103.97,48.02,103.32,47.9z"
		/>
	<path fill-rule="evenodd" fill="#CCE3F1" d="M60.37,11.45c-0.04,0.03-0.07,0.06-0.11,0.09C60.27,11.48,60.3,11.45,60.37,11.45z"/>
	<path fill-rule="evenodd" fill="#CFCFCF" d="M66.68,19.57c0.01,0.01,0.03,0.01,0.04,0.02C66.71,19.58,66.7,19.57,66.68,19.57
		L66.68,19.57z"/>
	<path fill-rule="evenodd" fill="#CFCFCF" d="M64.99,19.57c0,0.01-0.01,0.03-0.02,0.04C64.98,19.59,64.98,19.58,64.99,19.57
		L64.99,19.57z"/>
	<path fill-rule="evenodd" fill="#04639B" d="M100.08,24.66c0.05,0.93-0.01,1.85-0.19,2.77c-1.1,0.68-2.2,1.37-3.31,2.03
		c-0.85,0.5-1.73,0.95-2.58,1.45c-0.58,0.34-1.16,0.68-1.76,0.99c-0.89,0.46-1.76,0.95-2.65,1.4c-1.14,0.58-2.29,1.15-3.45,1.7
		c-1.04,0.5-2.08,0.97-3.13,1.44c-0.87,0.39-1.75,0.77-2.63,1.16c-0.15,0.07-0.31,0.1-0.47,0.11c-0.82-0.3-1.52-0.81-2.23-1.29
		c0.01-0.09,0-0.19,0.11-0.22c1.82-0.53,3.54-1.34,5.28-2.08c1.84-0.79,3.65-1.66,5.44-2.57c1.25-0.64,2.49-1.29,3.71-1.98
		c0.97-0.56,1.93-1.14,2.89-1.71c1.27-0.75,2.5-1.57,3.74-2.37C99.26,25.23,99.67,24.94,100.08,24.66z"/>
	<path fill-rule="evenodd" fill="#CCE3F1" d="M100.02,23.32c0.15,0.29,0.24,0.58,0.08,0.9C99.98,23.92,100.02,23.62,100.02,23.32z"
		/>
	<path fill-rule="evenodd" fill="#CCE3F1" d="M116.54,12.71c-0.21,0.71-0.68,1.26-1.11,1.84c-1.1,1.47-2.37,2.79-3.72,4.03
		c-1.96,1.81-4.04,3.49-6.2,5.06c-0.04,0.02-0.08,0.03-0.13,0.04c0.08-1.54,0.27-3.06,0.86-4.5c0.2,0.35,0.38,0.09,0.52-0.04
		c0.67-0.64,1.28-1.34,1.84-2.07c0.58-0.76,1.1-1.56,1.36-2.5c0.05-0.18,0.12-0.37-0.04-0.54c1.22-0.83,2.58-1.24,4.05-1.38
		C114.84,12.58,115.69,12.58,116.54,12.71z"/>
	<path fill-rule="evenodd" fill="#FFFFFF" d="M109.69,14.16c0.07-0.05,0.15-0.08,0.23-0.12c0.16,0.17,0.09,0.36,0.04,0.54
		c-0.26,0.94-0.78,1.74-1.36,2.5c-0.56,0.74-1.18,1.43-1.84,2.07c-0.14,0.13-0.32,0.39-0.52,0.04"/>
	<path fill-rule="evenodd" fill="#CFCFCF" d="M105.35,24.22c0.11,0.17,0.14,0.36,0.45,0.38c0.69,0.05,0.64-0.53,0.85-0.87
		c0.1-0.01,0.13,0.04,0.14,0.1c0.13,0.58,0.45,0.88,1.07,0.76c0.1-0.02,0.26-0.06,0.32,0.08c0.07,0.16-0.11,0.18-0.18,0.26
		c-0.07,0.08-0.14,0.17-0.23,0.21c-0.38,0.18-0.41,0.45-0.28,0.82c0.05,0.16,0.17,0.33,0.08,0.52c-0.27,0.01-0.41-0.22-0.59-0.36
		c-0.2-0.16-0.29-0.18-0.5,0.01c-0.17,0.15-0.25,0.43-0.55,0.44c-0.11-0.27,0.05-0.52,0.07-0.77c0.04-0.38-0.16-0.58-0.4-0.78
		c-0.14-0.12-0.22-0.06-0.23,0.1c-0.02,0.24-0.02,0.48-0.02,0.71C105.25,25.28,105.25,24.75,105.35,24.22z"/>
	<path fill-rule="evenodd" fill="#CFCFCF" d="M103.2,14.15c-0.29-0.08-0.42-0.48-0.74-0.43c-0.28,0.05-0.38,0.39-0.61,0.56
		c-0.04,0.03-0.09,0.06-0.17,0.1c-0.12-0.23,0.06-0.38,0.1-0.55c0.1-0.45,0.01-0.83-0.38-1.1c-0.11-0.08-0.24-0.17-0.18-0.32
		c0.05-0.13,0.21-0.07,0.33-0.07c0.32,0,0.67,0.05,0.61-0.45l0,0c0.03-0.03,0.05-0.05,0.08-0.08c0.03-0.17,0.1-0.33,0.29-0.34
		c0.19,0,0.13,0.24,0.24,0.33c0.03,0.21-0.01,0.52,0.29,0.51c0.31-0.01,0.13-0.32,0.17-0.5c0.01-0.03,0-0.06,0-0.09
		c0.02-0.03,0.03-0.06,0.05-0.08c0.05,0.83,0.06,1.66-0.01,2.49C103.24,14.13,103.22,14.13,103.2,14.15z"/>
	<path fill-rule="evenodd" fill="#CFCFCF" d="M105.29,16.88c0.11-0.07,0.21-0.09,0.33,0c-0.06,0.25-0.09,0.51-0.33,0.73
		C105.29,17.34,105.29,17.11,105.29,16.88z"/>
	<path fill-rule="evenodd" fill="#CCE3F1" d="M117,12.77c-0.11,0.02-0.21,0.04-0.3-0.06C116.82,12.67,116.92,12.69,117,12.77z"/>
	<path fill-rule="evenodd" fill="#C9551C" d="M210.01,14.38c-0.11-0.12-0.23-0.25-0.4-0.28c-0.03-0.16-0.08-0.27-0.27-0.17l0.02,0
		c0.13-0.2-0.09-0.25-0.16-0.34c-0.53-0.63-0.87-1.33-0.95-2.16c0.9,0.13,1.67,0.57,2.43,1.01c1.04,0.6,1.93,1.38,2.67,2.33
		c-0.82,0.28-1.63,0.22-2.44-0.04c-0.22-0.07-0.41-0.25-0.66-0.19l0,0.01C210.3,14.34,210.13,14.39,210.01,14.38z"/>
	<path fill-rule="evenodd" fill="#CFCFCF" d="M69.2,38.59c-0.36-0.58-0.55-0.61-1.05-0.17c-0.07,0.06-0.14,0.19-0.25,0.11
		c-0.05-0.04-0.07-0.17-0.05-0.24c0.19-0.59-0.03-1.01-0.5-1.35c-0.04-0.03-0.04-0.1-0.06-0.15c0.03-0.03,0.05-0.07,0.07-0.07
		c0.58,0.11,0.94-0.12,1.1-0.69c0.07-0.28,0.26-0.24,0.28-0.02c0.08,0.81,0.65,0.71,1.19,0.7c0.05,0,0.11,0.01,0.24,0.03
		c-0.26,0.23-0.45,0.46-0.69,0.6c-0.28,0.16-0.27,0.34-0.16,0.58c0.09,0.22,0.17,0.44,0.25,0.66C69.44,38.77,69.32,38.57,69.2,38.59
		z"/>
	<path fill-rule="evenodd" fill="#FFFFFF" d="M103.22,11.72c0,0.03,0.01,0.06,0,0.09c-0.05,0.17,0.14,0.48-0.17,0.5
		c-0.3,0.01-0.25-0.3-0.29-0.51C102.89,11.66,103.06,11.71,103.22,11.72z"/>
	<path fill-rule="evenodd" fill="#FFFFFF" d="M102.23,11.81c-0.03,0.03-0.05,0.05-0.08,0.08C102.18,11.86,102.2,11.83,102.23,11.81z
		"/>
	<path fill-rule="evenodd" fill="#CFCFCF" d="M65.99,30.29c0.13,0.28,0.34,0.38,0.64,0.36c0.21-0.01,0.43-0.05,0.77,0.1
		c-0.92,0.43-1.18,1.02-0.59,1.87c-0.31-0.16-0.58-0.24-0.76-0.48c-0.18-0.25-0.35-0.16-0.52,0c-0.19,0.17-0.37,0.35-0.63,0.6
		c0.09-0.5,0.31-0.89,0.17-1.31c-0.17-0.18-0.34-0.36-0.51-0.54c-0.08-0.09-0.15-0.28,0.04-0.24c0.77,0.15,0.92-0.42,1.12-0.93
		C66.01,29.84,65.97,30.08,65.99,30.29z"/>
	<path fill-rule="evenodd" fill="#147DC0" d="M210.01,14.38c0.12,0,0.28-0.04,0.23,0.18C210.13,14.55,210.08,14.46,210.01,14.38z"/>
	<path fill-rule="evenodd" fill="#147DC0" d="M209.35,13.93c0.19-0.1,0.24,0.01,0.27,0.17C209.53,14.04,209.4,14.04,209.35,13.93z"
		/>
</g>
</svg>
