<?xml version="1.0" encoding="utf-8"?>
<!-- Generator: Adobe Illustrator 16.0.4, SVG Export Plug-In . SVG Version: 6.00 Build 0)  -->
<!DOCTYPE svg PUBLIC "-//W3C//DTD SVG 1.1//EN" "http://www.w3.org/Graphics/SVG/1.1/DTD/svg11.dtd">
<svg version="1.1" id="Layer_1" xmlns="http://www.w3.org/2000/svg" xmlns:xlink="http://www.w3.org/1999/xlink" x="0px" y="0px"
	 width="2048px" height="1600px" viewBox="-512 -416 2048 1600" enable-background="new -512 -416 2048 1600" xml:space="preserve">
<g>
	<path fill="#004380" d="M285.999,864.75c-45.294,35.695-93.582,70.938-144.839,105.945C89.683,935.687,41.61,900.445-3.653,864.75
		c-46.146-36.549-89.311-73.504-129.245-110.857l115.766-110.453c44.647,53.857,95.681,103.426,158.289,154.035
		c271.515-217.662,377.005-467.573,319.15-751.083H-79.713c10.683-29.88,15.151-61.695,15.151-95.263
		c0-47.848-11.965-92.912-32.896-132.448h871.343C837.99,220.502,675.161,557.566,285.999,864.75 M-191.21,189.062
		c-2.127,148.469,45.705,284.75,141.411,413.768l-120.51,114.91c-162.113-161.912-265.516-332.795-309.921-517.555
		c39.708,21.346,85.24,33.328,133.274,33.328C-289.459,233.513-235.858,218.775-191.21,189.062z"/>
	<path fill="#AFBFDA" d="M-580.221-48.868c0-129.021,104.459-233.463,233.479-233.463c128.832,0,233.461,104.442,233.461,233.463
		c0,128.801-104.462,233.489-233.461,233.489C-475.732,184.392-580.221,79.705-580.221-48.868"/>
</g>
</svg>
