<?xml version="1.0" encoding="utf-8"?>
<!-- Generator: Adobe Illustrator 16.0.4, SVG Export Plug-In . SVG Version: 6.00 Build 0)  -->
<!DOCTYPE svg PUBLIC "-//W3C//DTD SVG 1.1//EN" "http://www.w3.org/Graphics/SVG/1.1/DTD/svg11.dtd">
<svg version="1.1" id="Layer_1" xmlns="http://www.w3.org/2000/svg" xmlns:xlink="http://www.w3.org/1999/xlink" x="0px" y="0px"
	 width="1024px" height="768px" viewBox="-420.5 297.5 1024 768" enable-background="new -420.5 297.5 1024 768"
	 xml:space="preserve">
<g>
	<path fill="#004380" d="M198.74,987.605c-26.632,20.989-55.028,41.712-85.168,62.297c-30.269-20.585-58.537-41.308-85.153-62.297
		c-27.135-21.493-52.516-43.223-75.999-65.186l68.073-64.95c26.254,31.669,56.262,60.817,93.078,90.575
		c159.655-127.988,221.685-274.941,187.665-441.65H-16.305c6.281-17.571,8.909-36.278,8.909-56.017
		c0-28.134-7.035-54.633-19.344-77.881h512.367C523.323,608.774,427.577,806.975,198.74,987.605 M-81.868,590.287
		c-1.251,87.302,26.875,167.439,83.152,243.304l-70.862,67.57c-95.326-95.209-156.129-195.691-182.24-304.333
		c23.349,12.551,50.123,19.596,78.368,19.596C-139.64,616.424-108.122,607.758-81.868,590.287z"/>
	<path fill="#AFBFDA" d="M-310.614,450.378c0-75.866,61.424-137.28,137.29-137.28c75.756,0,137.28,61.414,137.28,137.28
		c0,75.739-61.425,137.297-137.28,137.297C-249.173,587.541-310.614,525.983-310.614,450.378"/>
</g>
</svg>
