<?xml version="1.0" encoding="utf-8"?>
<!-- Generator: Adobe Illustrator 16.0.4, SVG Export Plug-In . SVG Version: 6.00 Build 0)  -->
<!DOCTYPE svg PUBLIC "-//W3C//DTD SVG 1.1//EN" "http://www.w3.org/Graphics/SVG/1.1/DTD/svg11.dtd">
<svg version="1.1" id="Layer_1" xmlns="http://www.w3.org/2000/svg" xmlns:xlink="http://www.w3.org/1999/xlink" x="0px" y="0px"
	 width="50px" height="50px" viewBox="0 0 50 50" enable-background="new 0 0 50 50" xml:space="preserve">
<path fill="#004380" d="M31.236,42.802c-1.549,1.221-3.2,2.426-4.953,3.624c-1.76-1.198-3.404-2.403-4.952-3.624
	c-1.578-1.25-3.054-2.513-4.42-3.791l3.959-3.776c1.527,1.841,3.272,3.536,5.413,5.267c9.285-7.443,12.893-15.99,10.914-25.685
	H18.73c0.365-1.022,0.518-2.11,0.518-3.258c0-1.636-0.409-3.177-1.125-4.529h29.798C50.113,20.771,44.545,32.298,31.236,42.802
	 M14.917,19.696c-0.073,5.077,1.563,9.737,4.836,14.15l-4.121,3.929c-5.544-5.537-9.08-11.381-10.599-17.699
	c1.358,0.73,2.915,1.14,4.558,1.14C11.557,21.216,13.39,20.712,14.917,19.696z"/>
<path fill="#AFBFDA" d="M1.614,11.559c0-4.412,3.572-7.984,7.984-7.984c4.406,0,7.984,3.572,7.984,7.984
	c0,4.405-3.572,7.985-7.984,7.985C5.187,19.536,1.614,15.956,1.614,11.559"/>
</svg>
