<?xml version="1.0" encoding="utf-8"?>
<!-- Generator: Adobe Illustrator 16.0.4, SVG Export Plug-In . SVG Version: 6.00 Build 0)  -->
<svg version="1.2" baseProfile="tiny" id="Layer_1" xmlns="http://www.w3.org/2000/svg" xmlns:xlink="http://www.w3.org/1999/xlink"
	 x="0px" y="0px" width="70px" height="70px" viewBox="-121.13 167.87 70 70" xml:space="preserve">
<path fill="#004380" d="M-77.59,227.24c-2.12,1.67-4.38,3.32-6.78,4.96c-2.41-1.64-4.66-3.29-6.78-4.96
	c-2.16-1.71-4.18-3.44-6.05-5.19l5.42-5.17c2.09,2.52,4.48,4.84,7.41,7.21c12.71-10.19,17.65-21.89,14.94-35.16h-25.28
	c0.5-1.4,0.71-2.89,0.71-4.46c0-2.24-0.56-4.35-1.54-6.2h40.79C-51.75,197.08-59.37,212.86-77.59,227.24 M-99.93,195.61
	c-0.1,6.95,2.14,13.33,6.62,19.37l-5.64,5.38c-7.59-7.58-12.43-15.58-14.51-24.23c1.86,1,3.99,1.56,6.24,1.56
	C-104.53,197.69-102.02,197-99.93,195.61z"/>
<path fill="#AFBFDA" d="M-118.14,184.47c0-6.04,4.89-10.93,10.93-10.93c6.03,0,10.93,4.89,10.93,10.93
	c0,6.03-4.89,10.93-10.93,10.93C-113.25,195.39-118.14,190.49-118.14,184.47"/>
</svg>
