<?xml version="1.0" encoding="utf-8"?>
<!-- Generator: Adobe Illustrator 16.0.4, SVG Export Plug-In . SVG Version: 6.00 Build 0)  -->
<svg version="1.2" baseProfile="tiny" id="Layer_1" xmlns="http://www.w3.org/2000/svg" xmlns:xlink="http://www.w3.org/1999/xlink"
	 x="0px" y="0px" width="120px" height="50px" viewBox="-360.5 322.5 120 50" overflow="inherit" xml:space="preserve">
<path fill="#282469" d="M-342.388,335.52c3.846-0.021,7.555,3.436,8.103,7.375c0.652,4.688-2.722,9.637-8.377,9.895
	c-0.884,0.041-1.777-0.04-2.61-0.412c-0.332-0.529-0.297-1.145-0.387-1.729c-0.687-4.438,0.005-8.678,1.863-12.735
	C-343.414,337.076-343.139,336.15-342.388,335.52z"/>
<path fill="#282469" d="M-290.938,342.784c-0.664-0.046-0.963,0.126-1.092,0.832c-0.433,2.358-1.109,4.665-1.515,7.03
	c-0.033,0.197-0.015,0.521-0.279,0.521c-0.278,0-0.209-0.313-0.254-0.515c-0.504-2.219-1.004-4.44-1.519-6.659
	c-0.28-1.21-0.293-1.167-1.485-1.214c-0.672-0.026-0.655,0.205-0.51,0.73c0.812,2.887,1.59,5.778,2.377,8.67
	c0.293,1.076,0.289,1.078,1.557,1.078c0.681,0.244,1-0.134,1.193-0.949c0.688-2.891,1.452-5.763,2.188-8.643
	C-290.055,342.8-290.061,342.844-290.938,342.784z"/>
<path fill="#28246A" d="M-274.828,351.37c0.111,1.821,0.055,1.889-1.67,2.071c-1.721,0.184-2.715-0.695-2.717-2.4
	c0-1.803-0.029-3.604,0.016-5.404c0.018-0.654-0.152-0.918-0.822-0.824c-0.348,0.047-0.703,0.104-0.707-0.494
	c-0.004-0.555,0.164-0.748,0.693-0.657c0.639,0.108,0.951-0.12,0.82-0.802c-0.004-0.022,0.004-0.049,0-0.072
	c-0.354-1.436,0.646-2.168,1.539-2.954c0.064-0.058,0.174-0.128,0.24-0.11c0.192,0.051,0.115,0.232,0.117,0.359
	c0.006,1.009,0.024,2.02-0.007,3.025c-0.016,0.436,0.097,0.625,0.552,0.56c0.188-0.028,0.385,0.017,0.573-0.009
	c0.47-0.062,0.556,0.167,0.558,0.584c0,0.418-0.084,0.59-0.553,0.591c-1.24,0.002-1.24,0.024-1.24,1.235
	c0,1.488-0.002,2.979,0,4.468c0.002,1.308,0.479,1.653,1.703,1.228C-275.441,351.66-275.168,351.52-274.828,351.37z"/>
<path fill="#282469" d="M-259.736,348.211c0-1.467,0-2.934,0-4.398c0.002-0.514,1.051-1.354,1.531-1.224
	c0.24,0.065,0.146,0.272,0.148,0.423c0.01,0.768-0.008,1.537,0.014,2.307c0.006,0.238-0.158,0.603,0.176,0.688
	c0.275,0.07,0.334-0.295,0.451-0.481c0.666-1.072,1.439-2.043,2.531-2.715c0.178-0.107,0.365-0.32,0.578-0.194
	c0.176,0.104,0.061,0.351,0.074,0.532c0.016,0.215,0.004,0.433,0.004,0.648c0,0.48,0.125,1.01-0.033,1.432
	c-0.213,0.565-0.826,0.111-1.254,0.262c-0.922,0.32-1.644,0.869-2.223,1.639c-0.164,0.221-0.119,0.457-0.119,0.689
	c-0.004,1.611-0.017,3.223,0.006,4.832c0.006,0.438-0.064,0.631-0.574,0.625c-1.311-0.019-1.311,0.012-1.311-1.312
	C-259.736,350.712-259.736,349.461-259.736,348.211z"/>
<path fill="#28246A" d="M-264.064,348.021c0-1.562,0.019-3.125-0.012-4.686c-0.008-0.455,0.131-0.555,0.568-0.552
	c1.27,0.008,1.271-0.015,1.271,1.223c0.002,2.858-0.011,5.718,0.014,8.575c0.004,0.508-0.078,0.714-0.656,0.691
	c-1.184-0.045-1.186-0.008-1.186-1.219C-264.064,350.712-264.064,349.367-264.064,348.021z"/>
<path fill="#282469" d="M-260.793,336.128c0.006,1.298-1.023,2.336-2.314,2.333c-1.274-0.003-2.346-1.068-2.346-2.335
	c-0.002-1.271,1.062-2.321,2.348-2.323C-261.797,333.803-260.799,334.807-260.793,336.128z"/>
<g>
	<path fill="#28246A" d="M-355.666,337.818c0,5.146,0,10.293,0,15.439c0.051-0.008,0.102-0.015,0.152-0.021
		c0.432,0.008,0.865-0.006,1.295,0.027c0.359,0.028,0.438-0.115,0.436-0.449c-0.018-4.947-0.021-9.896-0.03-14.844
		C-354.405,337.62-355.051,337.92-355.666,337.818z"/>
	<path fill="#28246A" d="M-348.76,337.973c-0.166-0.257-1.597-0.047-1.721,0.26c-0.806,1.99-1.603,3.982-2.443,6.08
		c0.514,0,0.921-0.021,1.326,0.008c0.294,0.021,0.423-0.108,0.523-0.36c0.741-1.864,1.492-3.728,2.239-5.589
		C-348.784,338.242-348.668,338.115-348.76,337.973z"/>
</g>
<path fill="#63549C" d="M-258.65,357.693c-0.445-0.197-0.885-0.463-1.414-0.412c-0.391,0.035-0.709,0.176-0.801,0.593
	c-0.094,0.42,0.115,0.692,0.484,0.856c0.373,0.162,0.754,0.31,1.129,0.473c0.896,0.389,1.248,0.953,1.113,1.779
	c-0.125,0.764-0.65,1.207-1.588,1.303c-0.584,0.061-1.135-0.078-1.662-0.354c-0.348-0.186-0.25-0.385-0.125-0.64
	c0.186-0.378,0.342-0.067,0.484,0.021c0.44,0.275,0.901,0.439,1.432,0.326c0.41-0.089,0.707-0.301,0.762-0.746
	c0.049-0.412-0.146-0.697-0.512-0.861c-0.459-0.204-0.928-0.393-1.394-0.584c-0.67-0.275-0.944-0.785-0.86-1.49
	c0.082-0.707,0.498-1.113,1.186-1.268c0.484-0.108,0.949-0.025,1.42,0.104C-258.475,356.938-258.225,357.172-258.65,357.693z"/>
<path fill="#63549C" d="M-266.486,356.715c0,0.68,0,1.271,0,2.092c0.725-0.875,1.219-1.757,2.217-2.035
	c0.24,1.023,0.224,1.059-0.647,1.35c-0.974,0.324-1.487,1.049-1.49,2.088c0,0.527-0.006,1.057,0.003,1.584
	c0.006,0.287-0.072,0.441-0.402,0.441c-0.31,0-0.414-0.104-0.412-0.416c0.012-1.463,0.021-2.926-0.004-4.389
	C-267.232,356.9-266.836,356.922-266.486,356.715z"/>
<path fill="#66569D" d="M-263.486,359.484c-0.002-0.746,0.002-1.49-0.002-2.235c-0.002-0.259,0.002-0.483,0.363-0.472
	c0.346,0.01,0.367,0.219,0.365,0.484c-0.006,1.514-0.006,3.027,0.002,4.541c0.002,0.303-0.094,0.434-0.414,0.428
	c-0.336-0.006-0.314-0.221-0.314-0.439C-263.488,361.021-263.486,360.253-263.486,359.484z"/>
<path fill="#695AA0" d="M-263.105,355.572c-0.399-0.041-0.596-0.262-0.572-0.622c0.021-0.359,0.232-0.571,0.613-0.554
	c0.385,0.021,0.564,0.281,0.553,0.619C-262.523,355.367-262.758,355.568-263.105,355.572z"/>
<path fill="#282469" d="M-300.027,345.537c-0.028-0.029-0.058-0.059-0.085-0.087c-1.532,0.362-2.38,1.401-2.38,2.911
	c0,1.177,0,2.352,0,3.527c0,1.441,0,1.424-1.461,1.381c-0.393-0.011-0.474-0.141-0.472-0.502c0.012-3.096,0.01-6.19,0.002-9.287
	c0-0.267,0.045-0.453,0.323-0.555c0.444-0.158,0.88-0.342,1.412-0.551c0,1.083-0.001,2.082,0.001,3.08
	c0,0.165-0.039,0.38,0.144,0.447c0.242,0.092,0.32-0.147,0.409-0.305c0.463-0.82,1.071-1.527,1.727-2.197
	c0.243-0.66-0.082-1.262-0.239-1.863c-0.776-2.975-2.169-5.656-4.002-8.114c-0.365-0.382-0.669-0.817-1.025-1.204
	c-2.203-2.396-4.744-4.318-7.725-5.664c-2.752-1.242-5.638-1.902-8.631-2.035c-2.753-0.123-5.453,0.312-8.071,1.189
	c-3.043,1.023-5.765,2.609-8.146,4.764c-0.89,0.807-1.709,1.688-2.463,2.623c-0.198,0.245-0.582,0.58,0.049,0.809
	c0.186,0.055,0.368,0.109,0.553,0.16c4.269,1.176,7.365,4.959,7.65,9.347c0.289,4.474-2.257,8.563-6.376,10.329
	c-1.845,0.791-3.768,0.857-5.718,0.799c-0.154,0.298,0.01,0.562,0.099,0.827c1.02,3.03,2.728,5.653,4.896,7.967
	c2.137,2.28,4.666,4.028,7.541,5.289c3.998,1.751,8.15,2.218,12.447,1.647c1.389-0.258,2.77-0.551,4.115-0.998
	c0.838-0.318,1.655-0.688,2.484-1.03c1.011-0.446,1.949-1.033,2.925-1.55c0.29-0.117,0.552-0.279,0.778-0.498
	c1.192-1.113,2.52-2.078,3.58-3.334c0.162-0.282,0.378-0.514,0.637-0.707c0.076-0.067,0.138-0.146,0.187-0.235
	c0.895-1.237,1.744-2.504,2.485-3.841c0.764-1.547,1.412-3.141,1.816-4.822c0.341-1.417,0.571-2.85,0.678-4.312
	C-299.798,347.789-299.725,346.662-300.027,345.537z M-322.392,348.705c-0.062,1.105-0.286,2.189-0.83,3.179
	c-0.551,0.999-1.365,1.616-2.533,1.632c-1.172,0.018-1.892-0.688-2.442-1.634c-0.141-0.239-0.165-0.555-0.514-0.76
	c-0.036,0.828-0.072,1.608-0.112,2.476c-0.441-0.185-0.826-0.361-1.224-0.502c-0.299-0.104-0.374-0.285-0.374-0.594
	c0.01-4.4,0.021-8.802-0.011-13.202c-0.003-0.567,0.354-0.604,0.691-0.735c1.126-0.439,1.13-0.437,1.131,0.77
	c0.002,1.395-0.004,2.789,0.001,4.184c0.001,0.23-0.075,0.483,0.127,0.688c0.307-0.071,0.354-0.372,0.497-0.577
	c1.119-1.604,3.289-1.674,4.449-0.09C-322.406,345.08-322.293,346.885-322.392,348.705z M-315.002,351.096
	c-0.316,1.446-1.635,2.416-3.321,2.452c-0.935,0.021-1.799-0.215-2.63-0.635c-0.463-0.233-0.678-0.479-0.318-0.972
	c0.168-0.229,0.279-0.5,0.433-0.782c0.67,0.44,1.29,0.93,2.104,1.041c0.896,0.12,1.732-0.284,2.026-1.022
	c0.285-0.712,0.131-1.347-0.528-1.757c-0.71-0.442-1.473-0.801-2.205-1.209c-1.203-0.67-2.086-1.542-1.92-3.075
	c0.173-1.599,1.304-2.609,3.032-2.674c0.83-0.031,1.609,0.158,2.37,0.503c0.493,0.224,0.654,0.481,0.378,0.979
	c-0.136,0.244-0.215,0.521-0.334,0.82c-0.704-0.474-1.376-0.938-2.237-0.959c-0.842-0.021-1.389,0.276-1.629,0.916
	c-0.243,0.65-0.018,1.266,0.714,1.693c0.702,0.411,1.447,0.75,2.174,1.119C-315.287,348.352-314.662,349.529-315.002,351.096z
	 M-306.417,348.193c-0.888-0.025-1.777-0.008-2.666-0.008c-0.864,0-1.729,0.01-2.594-0.006c-0.35-0.006-0.553,0.047-0.467,0.477
	c0.089,0.445,0.084,0.91,0.188,1.352c0.463,1.984,2.378,2.696,4.065,1.534c0.161-0.11,0.295-0.421,0.529-0.25
	c0.324,0.237,0.638,0.519,0.867,0.845c0.115,0.161-0.194,0.288-0.33,0.399c-2.537,2.095-6.227,0.877-6.996-2.313
	c-0.385-1.597-0.33-3.191,0.144-4.759c0.626-2.073,2.132-3.157,4.153-3.044c1.729,0.098,3.07,1.396,3.459,3.409
	c0.117,0.608,0.11,1.239,0.183,1.858C-305.829,348.124-306.03,348.204-306.417,348.193z"/>
<path fill="#282469" d="M-281.227,352.083c-0.594-0.239-0.635-0.636-0.64-1.136c-0.012-1.946,0.005-3.895-0.061-5.838
	c-0.044-1.264-0.72-2.037-1.947-2.364c-1.53-0.408-2.996-0.173-4.401,0.522c-0.963,0.473-0.947,0.455-0.408,1.397
	c0.217,0.381,0.391,0.435,0.764,0.192c0.564-0.362,1.184-0.639,1.854-0.754c1.453-0.254,2.428,0.043,2.359,1.819
	c-0.027,0.704-0.211,0.847-0.863,0.886c-1.604,0.096-3.146,0.43-4.293,1.715c-0.89,0.998-1.137,2.563-0.563,3.625
	c0.573,1.061,1.586,1.472,3.102,1.266c0.611-0.084,1.147-0.348,1.628-0.714c0.359-0.276,0.693-0.585,1.1-0.931
	c0.332,1.049,0.965,1.619,2.004,1.674c0.218,0.012,0.562,0.158,0.568-0.207C-281.021,352.846-280.747,352.275-281.227,352.083z
	 M-285.52,351.998c-0.694,0.264-1.36,0.281-1.924-0.301c-0.484-0.5-0.592-1.387-0.242-2.084c0.474-0.942,1.336-1.326,2.295-1.562
	c1.656-0.41,1.656-0.408,1.656,1.25C-283.734,350.835-284.16,351.486-285.52,351.998z"/>
<path fill="#282469" d="M-266.486,344.977c-0.606-1.529-1.731-2.365-3.408-2.422c-1.729-0.059-2.938,0.715-3.668,2.262
	c-0.461,0.975-0.582,2.02-0.584,3.252c-0.027,0.436,0.059,1.031,0.154,1.623c0.362,2.264,1.778,3.68,3.766,3.779
	c1.984,0.098,3.557-1.187,4.109-3.412C-265.689,348.333-265.834,346.625-266.486,344.977z M-268.24,350.568
	c-0.318,0.759-0.852,1.289-1.727,1.312c-0.867,0.022-1.473-0.444-1.805-1.198c-0.799-1.805-0.777-3.639-0.011-5.445
	c0.326-0.77,0.953-1.215,1.812-1.18c0.888,0.037,1.459,0.545,1.771,1.359c0.321,0.842,0.386,1.727,0.411,2.413
	C-267.789,348.904-267.9,349.762-268.24,350.568z"/>
<path fill="#282469" d="M-251.057,348.223c0.863,0.031,1.729,0.008,2.594,0.008c0.336,0,0.672,0,1.009,0
	c2.326,0,2.354-0.035,1.873-2.351c-0.399-1.913-1.729-3.214-3.39-3.313c-1.932-0.117-3.446,0.92-4.049,2.875
	c-0.522,1.703-0.614,3.447-0.062,5.168c0.94,2.938,4.479,3.9,6.813,1.871c0.113-0.1,0.377-0.199,0.248-0.36
	c-0.248-0.315-0.545-0.614-0.879-0.836c-0.205-0.138-0.354,0.17-0.518,0.284c-1.58,1.106-3.467,0.422-3.932-1.447
	c-0.109-0.439-0.137-0.9-0.203-1.35C-251.609,348.385-251.496,348.205-251.057,348.223z M-250.098,344.051
	c1.056-0.486,2.138,0.008,2.591,1.184c0.588,1.527,0.444,1.75-1.132,1.75c-0.264,0-0.527,0-0.789,0
	c-0.553,0-1.104,0.002-1.654-0.002c-0.18-0.002-0.367,0.045-0.41-0.256C-251.617,345.863-250.879,344.413-250.098,344.051z"/>
<path fill="#64539B" d="M-274.661,354.822c-0.903-0.19-1.821-0.049-2.729-0.105c-0.418-0.027-0.539,0.131-0.531,0.535
	c0.023,1.059,0.008,2.115,0.008,3.174c0,1.105,0.006,2.213-0.005,3.319c-0.002,0.303,0.032,0.495,0.418,0.491
	c0.388-0.002,0.424-0.201,0.418-0.502c-0.013-0.721,0.017-1.442-0.021-2.162c-0.02-0.408,0.127-0.481,0.498-0.471
	c0.576,0.018,1.155-0.008,1.728-0.058c1.086-0.093,1.806-0.886,1.866-2.017C-272.948,355.912-273.6,355.045-274.661,354.822z
	 M-275.023,358.33c-2.09,0.371-2.09,0.371-2.09-1.736c0-0.025,0-0.048,0-0.072c0-1.121,0-1.121,1.154-1.142
	c0.334,0.024,0.676,0.011,1,0.078c0.791,0.168,1.154,0.709,1.117,1.595C-273.871,357.822-274.209,358.186-275.023,358.33z"/>
<path fill="#63539B" d="M-287.134,354.312c-0.207,0.01-0.478,0.129-0.552,0.396c-0.037,0.136-0.018,0.287-0.018,0.431
	c-0.002,0.816-0.002,1.633-0.002,2.623c-0.211-0.268-0.318-0.418-0.441-0.554c-0.737-0.815-2.045-0.746-2.584,0.217
	c-0.726,1.292-0.783,2.673-0.065,3.987c0.608,1.113,1.937,1.188,2.76,0.232c0.082-0.095,0.111-0.281,0.313-0.217
	c0.015,0.284,0.029,0.569,0.045,0.868c0.447-0.128,0.738-0.286,0.729-0.83c-0.03-2.233-0.008-4.47-0.02-6.704
	C-286.968,354.604-286.843,354.299-287.134,354.312z M-288.299,361.266c-0.598,0.596-1.461,0.471-1.861-0.271
	c-0.258-0.475-0.322-0.994-0.305-1.527c-0.02-0.508,0.031-1.005,0.275-1.463c0.414-0.779,1.209-0.91,1.842-0.309
	C-287.512,358.49-287.486,360.454-288.299,361.266z"/>
<path fill="#63549C" d="M-268.006,361.719c-0.732-0.197-0.502-0.777-0.52-1.238c-0.029-0.744-0.004-1.49-0.009-2.236
	c-0.006-0.956-0.469-1.512-1.391-1.588c-0.647-0.055-1.291,0.014-1.9,0.293c-0.288,0.133-0.5,0.211-0.309,0.615
	c0.185,0.397,0.372,0.24,0.606,0.108c0.494-0.274,1.019-0.442,1.588-0.315c0.633,0.143,0.619,0.65,0.613,1.141
	c-0.003,0.537-0.421,0.343-0.689,0.361c-0.752,0.053-1.49,0.139-2.1,0.64c-0.643,0.526-0.83,1.39-0.473,2.073
	c0.328,0.629,1.049,0.88,1.873,0.691c0.568-0.13,0.965-0.512,1.434-0.929c0.141,0.581,0.398,0.957,0.979,0.985
	c0.136,0.007,0.308,0.043,0.359-0.143C-267.898,362.02-267.846,361.762-268.006,361.719z M-269.357,360.036
	c-0.002,0.899-1.053,1.767-1.897,1.61c-0.703-0.129-0.957-0.897-0.479-1.508c0.525-0.673,1.301-0.779,2.072-0.781
	C-269.133,359.355-269.461,359.836-269.357,360.036z"/>
<path fill="#63539C" d="M-284.758,359.441c0.289,0,0.578,0,0.865,0c0.168,0,0.336,0,0.504,0c1.332,0,1.332,0,1.029-1.303
	c-0.166-0.725-0.508-1.295-1.311-1.445c-0.926-0.174-1.705,0.088-2.129,0.834c-0.696,1.23-0.764,2.521-0.057,3.769
	c0.633,1.117,2.262,1.356,3.176,0.511c0.137-0.125,0.424-0.246,0.137-0.502c-0.188-0.168-0.314-0.254-0.598-0.056
	c-1.078,0.752-1.998,0.364-2.291-0.915C-285.635,359.443-285.635,359.443-284.758,359.441z M-285.167,357.812
	c0.397-0.576,1.162-0.701,1.688-0.275c0.365,0.296,0.543,0.725,0.429,1.141c-0.107,0.379-0.541,0.127-0.822,0.182
	c-0.14,0.029-0.286,0.006-0.429,0.006c-0.119-0.002-0.24,0.015-0.357-0.004c-0.268-0.041-0.66,0.156-0.773-0.125
	C-285.55,358.443-285.361,358.091-285.167,357.812z"/>
<path fill="#282469" d="M-324.208,347.895c0.008,1.064-0.059,1.972-0.412,2.828c-0.614,1.493-1.984,1.717-3.043,0.491
	c-0.64-0.737-0.866-1.646-0.952-2.587c-0.117-1.261,0.005-2.498,0.675-3.607c0.413-0.687,0.992-1.207,1.864-1.123
	c0.896,0.086,1.285,0.763,1.532,1.521C-324.268,346.268-324.178,347.148-324.208,347.895z"/>
<path fill="#282469" d="M-309.93,346.909c-0.528,0-1.062-0.042-1.584,0.012c-0.581,0.062-0.629-0.202-0.534-0.659
	c0.134-0.638,0.257-1.271,0.696-1.787c0.944-1.108,2.471-0.966,3.182,0.301c0.047,0.084,0.092,0.168,0.126,0.258
	c0.22,0.564,0.51,1.232,0.241,1.729c-0.213,0.393-0.921,0.098-1.407,0.145C-309.448,346.93-309.69,346.909-309.93,346.909z"/>
</svg>
